<svg width="80" height="80" viewBox="0 0 80 80" fill="none" xmlns="http://www.w3.org/2000/svg">
<rect width="80" height="80" rx="8" fill="#EDF7E5"/>
<path fill-rule="evenodd" clip-rule="evenodd" d="M45.0143 45.1587C45.0697 45.0112 45.2344 44.936 45.3825 44.9913C45.5306 45.0467 45.6052 45.2114 45.5505 45.3595L43.6349 50.5074C43.5796 50.6548 43.4148 50.7301 43.2675 50.6748C43.1194 50.6194 43.0442 50.4552 43.0995 50.3072L45.0143 45.1587Z" fill="#325B0F"/>
<path fill-rule="evenodd" clip-rule="evenodd" d="M46.2083 46.1486L47.8927 47.833L46.2083 49.5174C46.0828 49.6422 46.0828 49.8469 46.2083 49.9724C46.3338 50.0973 46.5384 50.0973 46.6633 49.9724L48.5749 48.0608C48.7005 47.9353 48.7005 47.7306 48.5749 47.6051L46.6633 45.6935C46.5384 45.568 46.3338 45.568 46.2083 45.6935C46.0828 45.8191 46.0828 46.0237 46.2083 46.1486Z" fill="#325B0F"/>
<path fill-rule="evenodd" clip-rule="evenodd" d="M42.441 46.1486L40.7572 47.833L42.441 49.5174C42.5665 49.6422 42.5665 49.8469 42.441 49.9724C42.3161 50.0973 42.1115 50.0973 41.986 49.9724L40.0744 48.0608C39.9488 47.9353 39.9488 47.7306 40.0744 47.6051L41.986 45.6935C42.1115 45.568 42.3161 45.568 42.441 45.6935C42.5665 45.8191 42.5665 46.0237 42.441 46.1486Z" fill="#325B0F"/>
<path d="M51.5627 41.9218H36.8657V53.734H51.5627V41.9218Z" stroke="#325B0F" stroke-miterlimit="2.6131" stroke-linecap="round" stroke-linejoin="round"/>
<path fill-rule="evenodd" clip-rule="evenodd" d="M28.6604 48.2958H29.7862C30.032 48.2958 30.2328 48.4972 30.2328 48.7431C30.2328 48.989 30.032 49.1897 29.7862 49.1897H28.6604C28.4145 49.1897 28.2137 48.9889 28.2137 48.7431C28.2137 48.4972 28.4146 48.2958 28.6604 48.2958Z" fill="#325B0F"/>
<path fill-rule="evenodd" clip-rule="evenodd" d="M32.3898 48.028C32.7844 48.028 33.1043 48.3479 33.1043 48.7431C33.1043 49.1376 32.7844 49.4575 32.3898 49.4575C31.9953 49.4575 31.6754 49.1376 31.6754 48.7431C31.6754 48.348 31.9953 48.028 32.3898 48.028Z" fill="#325B0F"/>
<path fill-rule="evenodd" clip-rule="evenodd" d="M34.2499 50.3709H26.7798C26.1323 50.3709 25.6 49.8399 25.6 49.1911V47.3708H34.2499V50.3709Z" stroke="#325B0F" stroke-miterlimit="2.6131" stroke-linecap="round" stroke-linejoin="round"/>
<path fill-rule="evenodd" clip-rule="evenodd" d="M39.3058 32.9673V41.912H38.5166H37.8106H37.2539H36.8658V41.9217L36.4043 41.9055H35.4291C34.7816 41.9055 34.2499 42.4366 34.2499 43.0854V47.3709H25.6V32.9673H39.3058Z" stroke="#325B0F" stroke-miterlimit="2.6131" stroke-linecap="round" stroke-linejoin="round"/>
<path fill-rule="evenodd" clip-rule="evenodd" d="M30.6945 32.0154C30.5246 32.0154 30.3868 31.8777 30.3868 31.7077C30.3868 31.5378 30.5245 31.4 30.6945 31.4H36.1893C36.3592 31.4 36.4976 31.5378 36.4976 31.7077C36.4976 31.8777 36.3592 32.0154 36.1893 32.0154H30.6945Z" fill="#325B0F"/>
<path fill-rule="evenodd" clip-rule="evenodd" d="M29.2372 31.2379C29.5255 31.2379 29.7585 31.4715 29.7585 31.7592C29.7585 32.0469 29.5255 32.2799 29.2372 32.2799C28.9502 32.2799 28.7164 32.0469 28.7164 31.7592C28.7164 31.4715 28.9502 31.2379 29.2372 31.2379Z" fill="#325B0F"/>
<path fill-rule="evenodd" clip-rule="evenodd" d="M26.7798 30.2557H38.1266C38.7748 30.2557 39.3058 30.7873 39.3058 31.4348V32.9674H25.6V31.4348C25.6 30.786 26.131 30.2557 26.7798 30.2557Z" stroke="#325B0F" stroke-miterlimit="2.6131" stroke-linecap="round" stroke-linejoin="round"/>
<path fill-rule="evenodd" clip-rule="evenodd" d="M52.4941 45.1664V44.0407C52.4941 43.7948 52.6955 43.594 52.9414 43.594C53.1873 43.594 53.3881 43.7949 53.3881 44.0407V45.1664C53.3881 45.4123 53.1873 45.6131 52.9414 45.6131C52.6955 45.6131 52.4941 45.4122 52.4941 45.1664Z" fill="#325B0F"/>
<path fill-rule="evenodd" clip-rule="evenodd" d="M52.4941 51.6253V50.4996C52.4941 50.2538 52.6955 50.0529 52.9414 50.0529C53.1873 50.0529 53.3881 50.2544 53.3881 50.4996V51.6253C53.3881 51.8712 53.1873 52.0727 52.9414 52.0727C52.6955 52.0728 52.4941 51.8712 52.4941 51.6253Z" fill="#325B0F"/>
<path fill-rule="evenodd" clip-rule="evenodd" d="M52.2269 47.8961C52.2269 47.5015 52.5468 47.1823 52.9414 47.1823C53.3359 47.1823 53.6559 47.5015 53.6559 47.8961C53.6559 48.2907 53.3359 48.6105 52.9414 48.6105C52.5468 48.6105 52.2269 48.2907 52.2269 47.8961Z" fill="#325B0F"/>
<path fill-rule="evenodd" clip-rule="evenodd" d="M35.8403 49.5921C35.8403 49.7614 35.7019 49.8998 35.532 49.8998C35.3627 49.8998 35.2244 49.7614 35.2244 49.5921V44.0967C35.2244 43.9268 35.3627 43.789 35.532 43.789C35.7019 43.789 35.8403 43.9267 35.8403 44.0967V49.5921Z" fill="#325B0F"/>
<path fill-rule="evenodd" clip-rule="evenodd" d="M35.0623 51.0487C35.0623 50.761 35.2965 50.528 35.5836 50.528C35.872 50.528 36.1049 50.761 36.1049 51.0487C36.1049 51.3364 35.8719 51.5694 35.5836 51.5694C35.2965 51.5694 35.0623 51.3364 35.0623 51.0487Z" fill="#325B0F"/>
<path fill-rule="evenodd" clip-rule="evenodd" d="M51.5627 41.9218H51.7507H53.2209C53.8683 41.9218 54.4001 42.456 54.4001 43.1016V52.5645C54.4001 53.2107 53.8671 53.7443 53.2209 53.7443H51.7507H51.5627V41.9218Z" stroke="#325B0F" stroke-miterlimit="2.6131" stroke-linecap="round" stroke-linejoin="round"/>
<path fill-rule="evenodd" clip-rule="evenodd" d="M34.2499 52.5645V43.1016C34.2499 42.4528 34.7816 41.9218 35.4291 41.9218H36.4042H36.8657V53.7443H36.4042H35.4291C34.7816 53.7443 34.2499 53.214 34.2499 52.5645Z" stroke="#325B0F" stroke-miterlimit="2.6131" stroke-linecap="round" stroke-linejoin="round"/>
<path fill-rule="evenodd" clip-rule="evenodd" d="M28.0864 38.8246H29.3415C29.4181 38.8246 29.4806 38.8876 29.4806 38.9642V40.2188C29.4806 40.2953 29.4181 40.3585 29.3415 40.3585H28.0864C28.0104 40.3585 27.9474 40.2954 27.9474 40.2188V38.9642C27.9474 38.8876 28.0104 38.8246 28.0864 38.8246Z" stroke="#325B0F" stroke-miterlimit="2.6131" stroke-linecap="round" stroke-linejoin="round"/>
<path fill-rule="evenodd" clip-rule="evenodd" d="M28.0864 42.7437H29.3415C29.4181 42.7437 29.4806 42.8061 29.4806 42.8827V44.1378C29.4806 44.2144 29.4181 44.2768 29.3415 44.2768H28.0864C28.0104 44.2768 27.9474 44.2144 27.9474 44.1378V42.8827C27.9474 42.8061 28.0104 42.7437 28.0864 42.7437Z" stroke="#325B0F" stroke-miterlimit="2.6131" stroke-linecap="round" stroke-linejoin="round"/>
<path fill-rule="evenodd" clip-rule="evenodd" d="M31.5396 42.7437H32.7941C32.8713 42.7437 32.9338 42.8068 32.9338 42.8827V44.1378C32.9338 44.2144 32.8713 44.2768 32.7941 44.2768H31.5396C31.463 44.2768 31.3999 44.2144 31.3999 44.1378V42.8827C31.3999 42.8068 31.4629 42.7437 31.5396 42.7437Z" stroke="#325B0F" stroke-miterlimit="2.6131" stroke-linecap="round" stroke-linejoin="round"/>
<path fill-rule="evenodd" clip-rule="evenodd" d="M31.5396 38.8246H32.7941C32.8713 38.8246 32.9338 38.8876 32.9338 38.9642V40.2188C32.9338 40.2953 32.8713 40.3585 32.7941 40.3585H31.5396C31.463 40.3585 31.3999 40.2954 31.3999 40.2188V38.9642C31.3999 38.8876 31.4629 38.8246 31.5396 38.8246Z" stroke="#325B0F" stroke-miterlimit="2.6131" stroke-linecap="round" stroke-linejoin="round"/>
<path fill-rule="evenodd" clip-rule="evenodd" d="M34.992 38.8246H36.2471C36.3237 38.8246 36.3861 38.8876 36.3861 38.9642V40.2188C36.3861 40.2953 36.3237 40.3585 36.2471 40.3585H34.992C34.9155 40.3585 34.853 40.2954 34.853 40.2188V38.9642C34.853 38.8876 34.9155 38.8246 34.992 38.8246Z" stroke="#325B0F" stroke-miterlimit="2.6131" stroke-linecap="round" stroke-linejoin="round"/>
<path fill-rule="evenodd" clip-rule="evenodd" d="M28.0864 34.9832H29.3415C29.4181 34.9832 29.4806 35.0457 29.4806 35.1223V36.3773C29.4806 36.4539 29.4181 36.5164 29.3415 36.5164H28.0864C28.0104 36.5164 27.9474 36.4539 27.9474 36.3773V35.1223C27.9474 35.0457 28.0104 34.9832 28.0864 34.9832Z" stroke="#325B0F" stroke-miterlimit="2.6131" stroke-linecap="round" stroke-linejoin="round"/>
<path fill-rule="evenodd" clip-rule="evenodd" d="M31.5396 34.9832H32.7941C32.8713 34.9832 32.9338 35.0457 32.9338 35.1223V36.3773C32.9338 36.4539 32.8713 36.5164 32.7941 36.5164H31.5396C31.463 36.5164 31.3999 36.4539 31.3999 36.3773V35.1223C31.3999 35.0457 31.4629 34.9832 31.5396 34.9832Z" stroke="#325B0F" stroke-miterlimit="2.6131" stroke-linecap="round" stroke-linejoin="round"/>
<path fill-rule="evenodd" clip-rule="evenodd" d="M34.992 34.9832H36.2471C36.3237 34.9832 36.3861 35.0457 36.3861 35.1223V36.3773C36.3861 36.4539 36.3237 36.5164 36.2471 36.5164H34.992C34.9155 36.5164 34.853 36.4539 34.853 36.3773V35.1223C34.853 35.0457 34.9155 34.9832 34.992 34.9832Z" stroke="#325B0F" stroke-miterlimit="2.6131" stroke-linecap="round" stroke-linejoin="round"/>
</svg>
