<svg width="66" height="65" viewBox="0 0 66 65" fill="none" xmlns="http://www.w3.org/2000/svg">
<g clip-path="url(#clip0_28_216)">
<path d="M58.2778 10.8333H7.7222C6.76447 10.8333 5.84597 11.2138 5.16875 11.891C4.49154 12.5682 4.11108 13.4867 4.11108 14.4445V50.5556C4.11108 51.5133 4.49154 52.4318 5.16875 53.109C5.84597 53.7862 6.76447 54.1667 7.7222 54.1667H58.2778C59.2355 54.1667 60.154 53.7862 60.8312 53.109C61.5084 52.4318 61.8889 51.5133 61.8889 50.5556V14.4445C61.8889 13.4867 61.5084 12.5682 60.8312 11.891C60.154 11.2138 59.2355 10.8333 58.2778 10.8333ZM55.4972 50.5556H10.7194L23.3583 37.4833L20.7583 34.9736L7.7222 48.4611V17.1889L30.1653 39.5236C30.8418 40.1962 31.7571 40.5737 32.7111 40.5737C33.6651 40.5737 34.5803 40.1962 35.2569 39.5236L58.2778 16.6292V48.2264L44.9889 34.9375L42.443 37.4833L55.4972 50.5556ZM10.0875 14.4445H55.3527L32.7111 36.9597L10.0875 14.4445Z" fill="#52921B"/>
</g>
<defs>
<clipPath id="clip0_28_216">
<rect width="65" height="65" fill="white" transform="translate(0.5)"/>
</clipPath>
</defs>
</svg>
