<svg width="522" height="434" viewBox="0 0 522 434" fill="none" xmlns="http://www.w3.org/2000/svg">
<g clip-path="url(#clip0_56_499)">
<path d="M522 381.4H0V381.691H522V381.4Z" fill="#EBEBEB"/>
<path d="M469.696 400.141H435.118V400.432H469.696V400.141Z" fill="#EBEBEB"/>
<path d="M345.794 403.309H336.721V403.6H345.794V403.309Z" fill="#EBEBEB"/>
<path d="M434.074 389.332H414.04V389.623H434.074V389.332Z" fill="#EBEBEB"/>
<path d="M99.8586 391.288H54.7682V391.58H99.8586V391.288Z" fill="#EBEBEB"/>
<path d="M115.769 391.288H109.161V391.58H115.769V391.288Z" fill="#EBEBEB"/>
<path d="M235.057 396.204H137.255V396.495H235.057V396.204Z" fill="#EBEBEB"/>
<path d="M247.438 329.451H45.8525C42.5639 329.451 39.8912 326.47 39.8912 322.801V6.65076C39.8912 2.98178 42.5639 0 45.8525 0H247.449C250.738 0 253.41 2.98178 253.41 6.65076V322.801C253.4 326.47 250.727 329.451 247.438 329.451ZM45.8525 0.291189C42.71 0.291189 40.1522 3.14484 40.1522 6.65076V322.801C40.1522 326.307 42.71 329.16 45.8525 329.16H247.449C250.591 329.16 253.149 326.307 253.149 322.801V6.65076C253.149 3.14484 250.591 0.291189 247.449 0.291189H45.8525Z" fill="#EBEBEB"/>
<path d="M473.256 329.451H271.659C268.371 329.451 265.698 326.47 265.698 322.801V6.65076C265.698 2.98178 268.371 0 271.659 0H473.256C476.544 0 479.217 2.98178 479.217 6.65076V322.801C479.217 326.47 476.544 329.451 473.256 329.451ZM271.659 0.291189C268.517 0.291189 265.959 3.14484 265.959 6.65076V322.801C265.959 326.307 268.517 329.16 271.659 329.16H473.256C476.398 329.16 478.956 326.307 478.956 322.801V6.65076C478.956 3.14484 476.398 0.291189 473.256 0.291189H271.659Z" fill="#EBEBEB"/>
<path d="M465.018 72.4712H212.078V344.488H465.018V72.4712Z" fill="#E0E0E0"/>
<path d="M465.018 77.4098H216.139V339.736H465.018V77.4098Z" fill="#F5F5F5"/>
<path d="M217.977 276.21V197.31H225.316V186.885L241.853 178.254V167.597H244.609V197.31H247.365V276.21H251.04V235.223H259.309V213.71H262.065V276.21H268.485V252.647H273.079V246.498H283.185V224.973H288.697V210.635H295.128V189.11H297.884V210.635H304.316V224.973H309.817V246.498H319.923V252.647H324.517V276.21H330.029V246.498H340.135V180.91H342.891V173.735H364.93V180.91H369.524V228.048H387.898V233.173H394.319V236.248H387.898V254.697H407.181V193.21H410.856V180.91H420.043V133.772H422.799V180.91H429.23V193.21H465.018V339.748H216.139V276.21H217.977Z" fill="#E6E6E6"/>
<path d="M445.892 196.425H443.293V199.325H445.892V196.425Z" fill="#F0F0F0"/>
<path d="M445.892 201.293H443.293V204.194H445.892V201.293Z" fill="#F0F0F0"/>
<path d="M445.892 220.756H443.293V223.657H445.892V220.756Z" fill="#F0F0F0"/>
<path d="M445.892 225.625H443.293V228.525H445.892V225.625Z" fill="#F0F0F0"/>
<path d="M445.892 230.494H443.293V233.394H445.892V230.494Z" fill="#F0F0F0"/>
<path d="M445.892 245.1H443.293V248H445.892V245.1Z" fill="#F0F0F0"/>
<path d="M445.892 249.969H443.293V252.869H445.892V249.969Z" fill="#F0F0F0"/>
<path d="M441.758 215.888H439.159V218.788H441.758V215.888Z" fill="#F0F0F0"/>
<path d="M441.758 220.756H439.159V223.657H441.758V220.756Z" fill="#F0F0F0"/>
<path d="M441.758 225.625H439.159V228.525H441.758V225.625Z" fill="#F0F0F0"/>
<path d="M441.758 230.494H439.159V233.394H441.758V230.494Z" fill="#F0F0F0"/>
<path d="M441.758 235.362H439.159V238.263H441.758V235.362Z" fill="#F0F0F0"/>
<path d="M441.758 245.1H439.159V248H441.758V245.1Z" fill="#F0F0F0"/>
<path d="M441.758 249.969H439.159V252.869H441.758V249.969Z" fill="#F0F0F0"/>
<path d="M437.624 196.425H435.024V199.325H437.624V196.425Z" fill="#F0F0F0"/>
<path d="M437.624 201.293H435.024V204.194H437.624V201.293Z" fill="#F0F0F0"/>
<path d="M437.624 206.162H435.024V209.062H437.624V206.162Z" fill="#F0F0F0"/>
<path d="M437.624 211.031H435.024V213.931H437.624V211.031Z" fill="#F0F0F0"/>
<path d="M437.624 215.888H435.024V218.788H437.624V215.888Z" fill="#F0F0F0"/>
<path d="M437.624 220.756H435.024V223.657H437.624V220.756Z" fill="#F0F0F0"/>
<path d="M437.624 225.625H435.024V228.525H437.624V225.625Z" fill="#F0F0F0"/>
<path d="M437.624 230.494H435.024V233.394H437.624V230.494Z" fill="#F0F0F0"/>
<path d="M437.624 235.362H435.024V238.263H437.624V235.362Z" fill="#F0F0F0"/>
<path d="M437.624 240.231H435.024V243.131H437.624V240.231Z" fill="#F0F0F0"/>
<path d="M437.624 249.969H435.024V252.869H437.624V249.969Z" fill="#F0F0F0"/>
<path d="M433.49 196.425H430.89V199.325H433.49V196.425Z" fill="#F0F0F0"/>
<path d="M433.49 201.293H430.89V204.194H433.49V201.293Z" fill="#F0F0F0"/>
<path d="M433.49 206.162H430.89V209.062H433.49V206.162Z" fill="#F0F0F0"/>
<path d="M433.49 211.031H430.89V213.931H433.49V211.031Z" fill="#F0F0F0"/>
<path d="M433.49 215.888H430.89V218.788H433.49V215.888Z" fill="#F0F0F0"/>
<path d="M433.49 220.756H430.89V223.657H433.49V220.756Z" fill="#F0F0F0"/>
<path d="M433.49 225.625H430.89V228.525H433.49V225.625Z" fill="#F0F0F0"/>
<path d="M433.49 269.432H430.89V272.332H433.49V269.432Z" fill="#F0F0F0"/>
<path d="M429.355 196.425H426.756V199.325H429.355V196.425Z" fill="#F0F0F0"/>
<path d="M429.355 201.293H426.756V204.194H429.355V201.293Z" fill="#F0F0F0"/>
<path d="M429.355 206.162H426.756V209.062H429.355V206.162Z" fill="#F0F0F0"/>
<path d="M429.355 211.031H426.756V213.931H429.355V211.031Z" fill="#F0F0F0"/>
<path d="M429.355 215.888H426.756V218.788H429.355V215.888Z" fill="#F0F0F0"/>
<path d="M429.355 220.756H426.756V223.657H429.355V220.756Z" fill="#F0F0F0"/>
<path d="M429.355 225.625H426.756V228.525H429.355V225.625Z" fill="#F0F0F0"/>
<path d="M429.355 230.494H426.756V233.394H429.355V230.494Z" fill="#F0F0F0"/>
<path d="M429.355 259.706H426.756V262.606H429.355V259.706Z" fill="#F0F0F0"/>
<path d="M429.355 264.563H426.756V267.463H429.355V264.563Z" fill="#F0F0F0"/>
<path d="M429.355 269.432H426.756V272.332H429.355V269.432Z" fill="#F0F0F0"/>
<path d="M429.355 274.3H426.756V277.201H429.355V274.3Z" fill="#F0F0F0"/>
<path d="M429.355 293.775H426.756V296.675H429.355V293.775Z" fill="#F0F0F0"/>
<path d="M425.221 196.425H422.622V199.325H425.221V196.425Z" fill="#F0F0F0"/>
<path d="M425.221 201.293H422.622V204.194H425.221V201.293Z" fill="#F0F0F0"/>
<path d="M425.221 206.162H422.622V209.062H425.221V206.162Z" fill="#F0F0F0"/>
<path d="M425.221 211.031H422.622V213.931H425.221V211.031Z" fill="#F0F0F0"/>
<path d="M425.221 215.888H422.622V218.788H425.221V215.888Z" fill="#F0F0F0"/>
<path d="M425.221 220.756H422.622V223.657H425.221V220.756Z" fill="#F0F0F0"/>
<path d="M425.221 225.625H422.622V228.525H425.221V225.625Z" fill="#F0F0F0"/>
<path d="M425.221 230.494H422.622V233.394H425.221V230.494Z" fill="#F0F0F0"/>
<path d="M425.221 235.362H422.622V238.263H425.221V235.362Z" fill="#F0F0F0"/>
<path d="M425.221 240.231H422.622V243.131H425.221V240.231Z" fill="#F0F0F0"/>
<path d="M425.221 254.837H422.622V257.737H425.221V254.837Z" fill="#F0F0F0"/>
<path d="M425.221 259.706H422.622V262.606H425.221V259.706Z" fill="#F0F0F0"/>
<path d="M425.221 264.563H422.622V267.463H425.221V264.563Z" fill="#F0F0F0"/>
<path d="M425.221 269.432H422.622V272.332H425.221V269.432Z" fill="#F0F0F0"/>
<path d="M425.221 274.3H422.622V277.201H425.221V274.3Z" fill="#F0F0F0"/>
<path d="M425.221 293.775H422.622V296.675H425.221V293.775Z" fill="#F0F0F0"/>
<path d="M421.087 196.425H418.487V199.325H421.087V196.425Z" fill="#F0F0F0"/>
<path d="M421.087 201.293H418.487V204.194H421.087V201.293Z" fill="#F0F0F0"/>
<path d="M421.087 206.162H418.487V209.062H421.087V206.162Z" fill="#F0F0F0"/>
<path d="M421.087 211.031H418.487V213.931H421.087V211.031Z" fill="#F0F0F0"/>
<path d="M421.087 215.888H418.487V218.788H421.087V215.888Z" fill="#F0F0F0"/>
<path d="M421.087 220.756H418.487V223.657H421.087V220.756Z" fill="#F0F0F0"/>
<path d="M421.087 225.625H418.487V228.525H421.087V225.625Z" fill="#F0F0F0"/>
<path d="M421.087 230.494H418.487V233.394H421.087V230.494Z" fill="#F0F0F0"/>
<path d="M421.087 235.362H418.487V238.263H421.087V235.362Z" fill="#F0F0F0"/>
<path d="M421.087 240.231H418.487V243.131H421.087V240.231Z" fill="#F0F0F0"/>
<path d="M421.087 245.1H418.487V248H421.087V245.1Z" fill="#F0F0F0"/>
<path d="M421.087 249.969H418.487V252.869H421.087V249.969Z" fill="#F0F0F0"/>
<path d="M421.087 254.837H418.487V257.737H421.087V254.837Z" fill="#F0F0F0"/>
<path d="M421.087 259.706H418.487V262.606H421.087V259.706Z" fill="#F0F0F0"/>
<path d="M421.087 264.563H418.487V267.463H421.087V264.563Z" fill="#F0F0F0"/>
<path d="M421.087 269.432H418.487V272.332H421.087V269.432Z" fill="#F0F0F0"/>
<path d="M421.087 274.3H418.487V277.201H421.087V274.3Z" fill="#F0F0F0"/>
<path d="M421.087 279.169H418.487V282.069H421.087V279.169Z" fill="#F0F0F0"/>
<path d="M416.953 196.425H414.353V199.325H416.953V196.425Z" fill="#F0F0F0"/>
<path d="M416.953 201.293H414.353V204.194H416.953V201.293Z" fill="#F0F0F0"/>
<path d="M416.953 206.162H414.353V209.062H416.953V206.162Z" fill="#F0F0F0"/>
<path d="M416.953 211.031H414.353V213.931H416.953V211.031Z" fill="#F0F0F0"/>
<path d="M416.953 215.888H414.353V218.788H416.953V215.888Z" fill="#F0F0F0"/>
<path d="M416.953 220.756H414.353V223.657H416.953V220.756Z" fill="#F0F0F0"/>
<path d="M416.953 225.625H414.353V228.525H416.953V225.625Z" fill="#F0F0F0"/>
<path d="M416.953 230.494H414.353V233.394H416.953V230.494Z" fill="#F0F0F0"/>
<path d="M416.953 235.362H414.353V238.263H416.953V235.362Z" fill="#F0F0F0"/>
<path d="M416.953 240.231H414.353V243.131H416.953V240.231Z" fill="#F0F0F0"/>
<path d="M416.953 254.837H414.353V257.737H416.953V254.837Z" fill="#F0F0F0"/>
<path d="M416.953 259.706H414.353V262.606H416.953V259.706Z" fill="#F0F0F0"/>
<path d="M416.953 264.563H414.353V267.463H416.953V264.563Z" fill="#F0F0F0"/>
<path d="M416.953 269.432H414.353V272.332H416.953V269.432Z" fill="#F0F0F0"/>
<path d="M412.829 196.425H410.229V199.325H412.829V196.425Z" fill="#F0F0F0"/>
<path d="M412.829 201.293H410.229V204.194H412.829V201.293Z" fill="#F0F0F0"/>
<path d="M412.829 206.162H410.229V209.062H412.829V206.162Z" fill="#F0F0F0"/>
<path d="M412.829 211.031H410.229V213.931H412.829V211.031Z" fill="#F0F0F0"/>
<path d="M412.829 215.888H410.229V218.788H412.829V215.888Z" fill="#F0F0F0"/>
<path d="M412.829 220.756H410.229V223.657H412.829V220.756Z" fill="#F0F0F0"/>
<path d="M412.829 225.625H410.229V228.525H412.829V225.625Z" fill="#F0F0F0"/>
<path d="M412.829 230.494H410.229V233.394H412.829V230.494Z" fill="#F0F0F0"/>
<path d="M412.829 235.362H410.229V238.263H412.829V235.362Z" fill="#F0F0F0"/>
<path d="M412.829 240.231H410.229V243.131H412.829V240.231Z" fill="#F0F0F0"/>
<path d="M412.829 254.837H410.229V257.737H412.829V254.837Z" fill="#F0F0F0"/>
<path d="M412.829 259.706H410.229V262.606H412.829V259.706Z" fill="#F0F0F0"/>
<path d="M412.829 264.563H410.229V267.463H412.829V264.563Z" fill="#F0F0F0"/>
<path d="M366.287 183.787H363.688V186.687H366.287V183.787Z" fill="#F0F0F0"/>
<path d="M366.287 188.656H363.688V191.556H366.287V188.656Z" fill="#F0F0F0"/>
<path d="M366.287 193.524H363.688V196.425H366.287V193.524Z" fill="#F0F0F0"/>
<path d="M366.287 198.381H363.688V201.282H366.287V198.381Z" fill="#F0F0F0"/>
<path d="M366.287 203.25H363.688V206.15H366.287V203.25Z" fill="#F0F0F0"/>
<path d="M366.287 208.119H363.688V211.019H366.287V208.119Z" fill="#F0F0F0"/>
<path d="M366.287 212.987H363.688V215.888H366.287V212.987Z" fill="#F0F0F0"/>
<path d="M366.287 217.856H363.688V220.756H366.287V217.856Z" fill="#F0F0F0"/>
<path d="M366.287 232.462H363.688V235.362H366.287V232.462Z" fill="#F0F0F0"/>
<path d="M366.287 237.331H363.688V240.231H366.287V237.331Z" fill="#F0F0F0"/>
<path d="M362.153 183.787H359.554V186.687H362.153V183.787Z" fill="#F0F0F0"/>
<path d="M362.153 188.656H359.554V191.556H362.153V188.656Z" fill="#F0F0F0"/>
<path d="M362.153 193.524H359.554V196.425H362.153V193.524Z" fill="#F0F0F0"/>
<path d="M362.153 198.381H359.554V201.282H362.153V198.381Z" fill="#F0F0F0"/>
<path d="M362.153 203.25H359.554V206.15H362.153V203.25Z" fill="#F0F0F0"/>
<path d="M362.153 208.119H359.554V211.019H362.153V208.119Z" fill="#F0F0F0"/>
<path d="M362.153 212.987H359.554V215.888H362.153V212.987Z" fill="#F0F0F0"/>
<path d="M362.153 217.856H359.554V220.756H362.153V217.856Z" fill="#F0F0F0"/>
<path d="M362.153 237.331H359.554V240.231H362.153V237.331Z" fill="#F0F0F0"/>
<path d="M358.019 183.787H355.419V186.687H358.019V183.787Z" fill="#F0F0F0"/>
<path d="M358.019 188.656H355.419V191.556H358.019V188.656Z" fill="#F0F0F0"/>
<path d="M358.019 193.524H355.419V196.425H358.019V193.524Z" fill="#F0F0F0"/>
<path d="M358.019 198.381H355.419V201.282H358.019V198.381Z" fill="#F0F0F0"/>
<path d="M358.019 203.25H355.419V206.15H358.019V203.25Z" fill="#F0F0F0"/>
<path d="M358.019 208.119H355.419V211.019H358.019V208.119Z" fill="#F0F0F0"/>
<path d="M358.019 212.987H355.419V215.888H358.019V212.987Z" fill="#F0F0F0"/>
<path d="M358.019 217.856H355.419V220.756H358.019V217.856Z" fill="#F0F0F0"/>
<path d="M353.885 183.787H351.285V186.687H353.885V183.787Z" fill="#F0F0F0"/>
<path d="M353.885 188.656H351.285V191.556H353.885V188.656Z" fill="#F0F0F0"/>
<path d="M353.885 193.524H351.285V196.425H353.885V193.524Z" fill="#F0F0F0"/>
<path d="M353.885 198.381H351.285V201.282H353.885V198.381Z" fill="#F0F0F0"/>
<path d="M353.885 203.25H351.285V206.15H353.885V203.25Z" fill="#F0F0F0"/>
<path d="M353.885 208.119H351.285V211.019H353.885V208.119Z" fill="#F0F0F0"/>
<path d="M353.885 217.856H351.285V220.756H353.885V217.856Z" fill="#F0F0F0"/>
<path d="M353.885 222.725H351.285V225.625H353.885V222.725Z" fill="#F0F0F0"/>
<path d="M353.885 237.331H351.285V240.231H353.885V237.331Z" fill="#F0F0F0"/>
<path d="M353.885 242.2H351.285V245.1H353.885V242.2Z" fill="#F0F0F0"/>
<path d="M353.885 247.057H351.285V249.957H353.885V247.057Z" fill="#F0F0F0"/>
<path d="M353.885 251.925H351.285V254.826H353.885V251.925Z" fill="#F0F0F0"/>
<path d="M353.885 256.794H351.285V259.694H353.885V256.794Z" fill="#F0F0F0"/>
<path d="M353.885 261.663H351.285V264.563H353.885V261.663Z" fill="#F0F0F0"/>
<path d="M353.885 266.531H351.285V269.432H353.885V266.531Z" fill="#F0F0F0"/>
<path d="M349.75 183.787H347.151V186.687H349.75V183.787Z" fill="#F0F0F0"/>
<path d="M349.75 188.656H347.151V191.556H349.75V188.656Z" fill="#F0F0F0"/>
<path d="M349.75 193.524H347.151V196.425H349.75V193.524Z" fill="#F0F0F0"/>
<path d="M349.75 198.381H347.151V201.282H349.75V198.381Z" fill="#F0F0F0"/>
<path d="M349.75 203.25H347.151V206.15H349.75V203.25Z" fill="#F0F0F0"/>
<path d="M349.75 208.119H347.151V211.019H349.75V208.119Z" fill="#F0F0F0"/>
<path d="M349.75 222.725H347.151V225.625H349.75V222.725Z" fill="#F0F0F0"/>
<path d="M349.75 227.594H347.151V230.494H349.75V227.594Z" fill="#F0F0F0"/>
<path d="M349.75 232.462H347.151V235.362H349.75V232.462Z" fill="#F0F0F0"/>
<path d="M349.75 237.331H347.151V240.231H349.75V237.331Z" fill="#F0F0F0"/>
<path d="M349.75 242.2H347.151V245.1H349.75V242.2Z" fill="#F0F0F0"/>
<path d="M349.75 247.057H347.151V249.957H349.75V247.057Z" fill="#F0F0F0"/>
<path d="M349.75 251.925H347.151V254.826H349.75V251.925Z" fill="#F0F0F0"/>
<path d="M349.75 256.794H347.151V259.694H349.75V256.794Z" fill="#F0F0F0"/>
<path d="M349.75 261.663H347.151V264.563H349.75V261.663Z" fill="#F0F0F0"/>
<path d="M349.75 266.531H347.151V269.432H349.75V266.531Z" fill="#F0F0F0"/>
<path d="M349.75 271.4H347.151V274.3H349.75V271.4Z" fill="#F0F0F0"/>
<path d="M349.75 281.137H347.151V284.038H349.75V281.137Z" fill="#F0F0F0"/>
<path d="M345.616 183.787H343.017V186.687H345.616V183.787Z" fill="#F0F0F0"/>
<path d="M345.616 188.656H343.017V191.556H345.616V188.656Z" fill="#F0F0F0"/>
<path d="M345.616 193.524H343.017V196.425H345.616V193.524Z" fill="#F0F0F0"/>
<path d="M345.616 198.381H343.017V201.282H345.616V198.381Z" fill="#F0F0F0"/>
<path d="M345.616 203.25H343.017V206.15H345.616V203.25Z" fill="#F0F0F0"/>
<path d="M345.616 208.119H343.017V211.019H345.616V208.119Z" fill="#F0F0F0"/>
<path d="M345.616 222.725H343.017V225.625H345.616V222.725Z" fill="#F0F0F0"/>
<path d="M345.616 227.594H343.017V230.494H345.616V227.594Z" fill="#F0F0F0"/>
<path d="M345.616 232.462H343.017V235.362H345.616V232.462Z" fill="#F0F0F0"/>
<path d="M345.616 237.331H343.017V240.231H345.616V237.331Z" fill="#F0F0F0"/>
<path d="M345.616 251.925H343.017V254.826H345.616V251.925Z" fill="#F0F0F0"/>
<path d="M345.616 256.794H343.017V259.694H345.616V256.794Z" fill="#F0F0F0"/>
<path d="M345.616 261.663H343.017V264.563H345.616V261.663Z" fill="#F0F0F0"/>
<path d="M345.616 266.531H343.017V269.432H345.616V266.531Z" fill="#F0F0F0"/>
<path d="M345.616 271.4H343.017V274.3H345.616V271.4Z" fill="#F0F0F0"/>
<path d="M345.616 281.137H343.017V284.038H345.616V281.137Z" fill="#F0F0F0"/>
<path d="M345.616 286.006H343.017V288.906H345.616V286.006Z" fill="#F0F0F0"/>
<path d="M308.116 229.049H305.516V231.95H308.116V229.049Z" fill="#F0F0F0"/>
<path d="M308.116 233.906H305.516V236.807H308.116V233.906Z" fill="#F0F0F0"/>
<path d="M308.116 238.775H305.516V241.675H308.116V238.775Z" fill="#F0F0F0"/>
<path d="M308.116 243.644H305.516V246.544H308.116V243.644Z" fill="#F0F0F0"/>
<path d="M308.116 248.513H305.516V251.413H308.116V248.513Z" fill="#F0F0F0"/>
<path d="M308.116 253.381H305.516V256.281H308.116V253.381Z" fill="#F0F0F0"/>
<path d="M308.116 258.25H305.516V261.15H308.116V258.25Z" fill="#F0F0F0"/>
<path d="M308.116 272.856H305.516V275.756H308.116V272.856Z" fill="#F0F0F0"/>
<path d="M308.116 277.713H305.516V280.613H308.116V277.713Z" fill="#F0F0F0"/>
<path d="M308.116 282.582H305.516V285.482H308.116V282.582Z" fill="#F0F0F0"/>
<path d="M303.981 229.049H301.382V231.95H303.981V229.049Z" fill="#F0F0F0"/>
<path d="M303.981 233.906H301.382V236.807H303.981V233.906Z" fill="#F0F0F0"/>
<path d="M303.981 238.775H301.382V241.675H303.981V238.775Z" fill="#F0F0F0"/>
<path d="M303.981 243.644H301.382V246.544H303.981V243.644Z" fill="#F0F0F0"/>
<path d="M303.981 248.513H301.382V251.413H303.981V248.513Z" fill="#F0F0F0"/>
<path d="M303.981 253.381H301.382V256.281H303.981V253.381Z" fill="#F0F0F0"/>
<path d="M303.981 258.25H301.382V261.15H303.981V258.25Z" fill="#F0F0F0"/>
<path d="M299.847 229.049H297.248V231.95H299.847V229.049Z" fill="#F0F0F0"/>
<path d="M299.847 233.906H297.248V236.807H299.847V233.906Z" fill="#F0F0F0"/>
<path d="M299.847 238.775H297.248V241.675H299.847V238.775Z" fill="#F0F0F0"/>
<path d="M299.847 243.644H297.248V246.544H299.847V243.644Z" fill="#F0F0F0"/>
<path d="M299.847 248.513H297.248V251.413H299.847V248.513Z" fill="#F0F0F0"/>
<path d="M299.847 253.381H297.248V256.281H299.847V253.381Z" fill="#F0F0F0"/>
<path d="M299.847 258.25H297.248V261.15H299.847V258.25Z" fill="#F0F0F0"/>
<path d="M295.713 229.049H293.113V231.95H295.713V229.049Z" fill="#F0F0F0"/>
<path d="M295.713 233.906H293.113V236.807H295.713V233.906Z" fill="#F0F0F0"/>
<path d="M295.713 238.775H293.113V241.675H295.713V238.775Z" fill="#F0F0F0"/>
<path d="M295.713 243.644H293.113V246.544H295.713V243.644Z" fill="#F0F0F0"/>
<path d="M295.713 248.513H293.113V251.413H295.713V248.513Z" fill="#F0F0F0"/>
<path d="M295.713 253.381H293.113V256.281H295.713V253.381Z" fill="#F0F0F0"/>
<path d="M295.713 258.25H293.113V261.15H295.713V258.25Z" fill="#F0F0F0"/>
<path d="M295.713 263.119H293.113V266.019H295.713V263.119Z" fill="#F0F0F0"/>
<path d="M295.713 267.987H293.113V270.888H295.713V267.987Z" fill="#F0F0F0"/>
<path d="M295.713 272.856H293.113V275.756H295.713V272.856Z" fill="#F0F0F0"/>
<path d="M295.713 277.713H293.113V280.613H295.713V277.713Z" fill="#F0F0F0"/>
<path d="M291.579 229.049H288.979V231.95H291.579V229.049Z" fill="#F0F0F0"/>
<path d="M291.579 233.906H288.979V236.807H291.579V233.906Z" fill="#F0F0F0"/>
<path d="M291.579 238.775H288.979V241.675H291.579V238.775Z" fill="#F0F0F0"/>
<path d="M291.579 243.644H288.979V246.544H291.579V243.644Z" fill="#F0F0F0"/>
<path d="M291.579 248.513H288.979V251.413H291.579V248.513Z" fill="#F0F0F0"/>
<path d="M291.579 253.381H288.979V256.281H291.579V253.381Z" fill="#F0F0F0"/>
<path d="M291.579 258.25H288.979V261.15H291.579V258.25Z" fill="#F0F0F0"/>
<path d="M291.579 263.119H288.979V266.019H291.579V263.119Z" fill="#F0F0F0"/>
<path d="M291.579 267.987H288.979V270.888H291.579V267.987Z" fill="#F0F0F0"/>
<path d="M291.579 272.856H288.979V275.756H291.579V272.856Z" fill="#F0F0F0"/>
<path d="M291.579 277.713H288.979V280.613H291.579V277.713Z" fill="#F0F0F0"/>
<path d="M291.579 282.582H288.979V285.482H291.579V282.582Z" fill="#F0F0F0"/>
<path d="M291.579 297.188H288.979V300.088H291.579V297.188Z" fill="#F0F0F0"/>
<path d="M291.579 302.056H288.979V304.957H291.579V302.056Z" fill="#F0F0F0"/>
<path d="M287.445 229.049H284.845V231.95H287.445V229.049Z" fill="#F0F0F0"/>
<path d="M287.445 233.906H284.845V236.807H287.445V233.906Z" fill="#F0F0F0"/>
<path d="M287.445 238.775H284.845V241.675H287.445V238.775Z" fill="#F0F0F0"/>
<path d="M287.445 253.381H284.845V256.281H287.445V253.381Z" fill="#F0F0F0"/>
<path d="M287.445 258.25H284.845V261.15H287.445V258.25Z" fill="#F0F0F0"/>
<path d="M287.445 263.119H284.845V266.019H287.445V263.119Z" fill="#F0F0F0"/>
<path d="M287.445 267.987H284.845V270.888H287.445V267.987Z" fill="#F0F0F0"/>
<path d="M287.445 272.856H284.845V275.756H287.445V272.856Z" fill="#F0F0F0"/>
<path d="M287.445 277.713H284.845V280.613H287.445V277.713Z" fill="#F0F0F0"/>
<path d="M287.445 282.582H284.845V285.482H287.445V282.582Z" fill="#F0F0F0"/>
<path d="M287.445 297.188H284.845V300.088H287.445V297.188Z" fill="#F0F0F0"/>
<path d="M287.445 302.056H284.845V304.957H287.445V302.056Z" fill="#F0F0F0"/>
<path d="M287.445 306.925H284.845V309.825H287.445V306.925Z" fill="#F0F0F0"/>
<path d="M244.129 199.837H241.529V202.738H244.129V199.837Z" fill="#F0F0F0"/>
<path d="M244.129 204.706H241.529V207.606H244.129V204.706Z" fill="#F0F0F0"/>
<path d="M244.129 209.575H241.529V212.475H244.129V209.575Z" fill="#F0F0F0"/>
<path d="M244.129 214.443H241.529V217.344H244.129V214.443Z" fill="#F0F0F0"/>
<path d="M244.129 219.312H241.529V222.212H244.129V219.312Z" fill="#F0F0F0"/>
<path d="M244.129 224.181H241.529V227.081H244.129V224.181Z" fill="#F0F0F0"/>
<path d="M244.129 229.049H241.529V231.95H244.129V229.049Z" fill="#F0F0F0"/>
<path d="M244.129 233.906H241.529V236.807H244.129V233.906Z" fill="#F0F0F0"/>
<path d="M244.129 238.775H241.529V241.675H244.129V238.775Z" fill="#F0F0F0"/>
<path d="M244.129 243.644H241.529V246.544H244.129V243.644Z" fill="#F0F0F0"/>
<path d="M244.129 248.513H241.529V251.413H244.129V248.513Z" fill="#F0F0F0"/>
<path d="M244.129 253.381H241.529V256.281H244.129V253.381Z" fill="#F0F0F0"/>
<path d="M244.129 258.25H241.529V261.15H244.129V258.25Z" fill="#F0F0F0"/>
<path d="M244.129 263.119H241.529V266.019H244.129V263.119Z" fill="#F0F0F0"/>
<path d="M244.129 267.987H241.529V270.888H244.129V267.987Z" fill="#F0F0F0"/>
<path d="M244.129 272.856H241.529V275.756H244.129V272.856Z" fill="#F0F0F0"/>
<path d="M244.129 277.713H241.529V280.613H244.129V277.713Z" fill="#F0F0F0"/>
<path d="M244.129 282.582H241.529V285.482H244.129V282.582Z" fill="#F0F0F0"/>
<path d="M244.129 287.45H241.529V290.351H244.129V287.45Z" fill="#F0F0F0"/>
<path d="M244.129 292.319H241.529V295.219H244.129V292.319Z" fill="#F0F0F0"/>
<path d="M244.129 297.188H241.529V300.088H244.129V297.188Z" fill="#F0F0F0"/>
<path d="M244.129 302.056H241.529V304.957H244.129V302.056Z" fill="#F0F0F0"/>
<path d="M244.129 306.925H241.529V309.825H244.129V306.925Z" fill="#F0F0F0"/>
<path d="M239.995 199.837H237.395V202.738H239.995V199.837Z" fill="#F0F0F0"/>
<path d="M239.995 204.706H237.395V207.606H239.995V204.706Z" fill="#F0F0F0"/>
<path d="M239.995 209.575H237.395V212.475H239.995V209.575Z" fill="#F0F0F0"/>
<path d="M239.995 214.443H237.395V217.344H239.995V214.443Z" fill="#F0F0F0"/>
<path d="M239.995 219.312H237.395V222.212H239.995V219.312Z" fill="#F0F0F0"/>
<path d="M239.995 224.181H237.395V227.081H239.995V224.181Z" fill="#F0F0F0"/>
<path d="M239.995 229.049H237.395V231.95H239.995V229.049Z" fill="#F0F0F0"/>
<path d="M239.995 233.906H237.395V236.807H239.995V233.906Z" fill="#F0F0F0"/>
<path d="M239.995 238.775H237.395V241.675H239.995V238.775Z" fill="#F0F0F0"/>
<path d="M239.995 243.644H237.395V246.544H239.995V243.644Z" fill="#F0F0F0"/>
<path d="M239.995 248.513H237.395V251.413H239.995V248.513Z" fill="#F0F0F0"/>
<path d="M239.995 253.381H237.395V256.281H239.995V253.381Z" fill="#F0F0F0"/>
<path d="M239.995 258.25H237.395V261.15H239.995V258.25Z" fill="#F0F0F0"/>
<path d="M239.995 263.119H237.395V266.019H239.995V263.119Z" fill="#F0F0F0"/>
<path d="M239.995 267.987H237.395V270.888H239.995V267.987Z" fill="#F0F0F0"/>
<path d="M239.995 272.856H237.395V275.756H239.995V272.856Z" fill="#F0F0F0"/>
<path d="M239.995 277.713H237.395V280.613H239.995V277.713Z" fill="#F0F0F0"/>
<path d="M239.995 282.582H237.395V285.482H239.995V282.582Z" fill="#F0F0F0"/>
<path d="M239.995 287.45H237.395V290.351H239.995V287.45Z" fill="#F0F0F0"/>
<path d="M235.86 199.837H233.261V202.738H235.86V199.837Z" fill="#F0F0F0"/>
<path d="M235.86 204.706H233.261V207.606H235.86V204.706Z" fill="#F0F0F0"/>
<path d="M235.86 209.575H233.261V212.475H235.86V209.575Z" fill="#F0F0F0"/>
<path d="M235.86 214.443H233.261V217.344H235.86V214.443Z" fill="#F0F0F0"/>
<path d="M235.86 219.312H233.261V222.212H235.86V219.312Z" fill="#F0F0F0"/>
<path d="M235.86 224.181H233.261V227.081H235.86V224.181Z" fill="#F0F0F0"/>
<path d="M235.86 229.049H233.261V231.95H235.86V229.049Z" fill="#F0F0F0"/>
<path d="M235.86 233.906H233.261V236.807H235.86V233.906Z" fill="#F0F0F0"/>
<path d="M235.86 238.775H233.261V241.675H235.86V238.775Z" fill="#F0F0F0"/>
<path d="M235.86 243.644H233.261V246.544H235.86V243.644Z" fill="#F0F0F0"/>
<path d="M235.86 248.513H233.261V251.413H235.86V248.513Z" fill="#F0F0F0"/>
<path d="M235.86 253.381H233.261V256.281H235.86V253.381Z" fill="#F0F0F0"/>
<path d="M235.86 258.25H233.261V261.15H235.86V258.25Z" fill="#F0F0F0"/>
<path d="M235.86 263.119H233.261V266.019H235.86V263.119Z" fill="#F0F0F0"/>
<path d="M235.86 267.987H233.261V270.888H235.86V267.987Z" fill="#F0F0F0"/>
<path d="M235.86 272.856H233.261V275.756H235.86V272.856Z" fill="#F0F0F0"/>
<path d="M235.86 277.713H233.261V280.613H235.86V277.713Z" fill="#F0F0F0"/>
<path d="M235.86 282.582H233.261V285.482H235.86V282.582Z" fill="#F0F0F0"/>
<path d="M235.86 287.45H233.261V290.351H235.86V287.45Z" fill="#F0F0F0"/>
<path d="M231.726 199.837H229.127V202.738H231.726V199.837Z" fill="#F0F0F0"/>
<path d="M231.726 204.706H229.127V207.606H231.726V204.706Z" fill="#F0F0F0"/>
<path d="M231.726 209.575H229.127V212.475H231.726V209.575Z" fill="#F0F0F0"/>
<path d="M231.726 214.443H229.127V217.344H231.726V214.443Z" fill="#F0F0F0"/>
<path d="M231.726 219.312H229.127V222.212H231.726V219.312Z" fill="#F0F0F0"/>
<path d="M231.726 224.181H229.127V227.081H231.726V224.181Z" fill="#F0F0F0"/>
<path d="M231.726 229.049H229.127V231.95H231.726V229.049Z" fill="#F0F0F0"/>
<path d="M231.726 233.906H229.127V236.807H231.726V233.906Z" fill="#F0F0F0"/>
<path d="M231.726 238.775H229.127V241.675H231.726V238.775Z" fill="#F0F0F0"/>
<path d="M231.726 243.644H229.127V246.544H231.726V243.644Z" fill="#F0F0F0"/>
<path d="M231.726 248.513H229.127V251.413H231.726V248.513Z" fill="#F0F0F0"/>
<path d="M231.726 253.381H229.127V256.281H231.726V253.381Z" fill="#F0F0F0"/>
<path d="M231.726 258.25H229.127V261.15H231.726V258.25Z" fill="#F0F0F0"/>
<path d="M231.726 263.119H229.127V266.019H231.726V263.119Z" fill="#F0F0F0"/>
<path d="M231.726 267.987H229.127V270.888H231.726V267.987Z" fill="#F0F0F0"/>
<path d="M227.592 199.837H224.992V202.738H227.592V199.837Z" fill="#F0F0F0"/>
<path d="M227.592 204.706H224.992V207.606H227.592V204.706Z" fill="#F0F0F0"/>
<path d="M227.592 209.575H224.992V212.475H227.592V209.575Z" fill="#F0F0F0"/>
<path d="M227.592 214.443H224.992V217.344H227.592V214.443Z" fill="#F0F0F0"/>
<path d="M227.592 219.312H224.992V222.212H227.592V219.312Z" fill="#F0F0F0"/>
<path d="M227.592 224.181H224.992V227.081H227.592V224.181Z" fill="#F0F0F0"/>
<path d="M227.592 229.049H224.992V231.95H227.592V229.049Z" fill="#F0F0F0"/>
<path d="M227.592 233.906H224.992V236.807H227.592V233.906Z" fill="#F0F0F0"/>
<path d="M227.592 238.775H224.992V241.675H227.592V238.775Z" fill="#F0F0F0"/>
<path d="M227.592 243.644H224.992V246.544H227.592V243.644Z" fill="#F0F0F0"/>
<path d="M227.592 248.513H224.992V251.413H227.592V248.513Z" fill="#F0F0F0"/>
<path d="M227.592 253.381H224.992V256.281H227.592V253.381Z" fill="#F0F0F0"/>
<path d="M227.592 258.25H224.992V261.15H227.592V258.25Z" fill="#F0F0F0"/>
<path d="M223.458 199.837H220.858V202.738H223.458V199.837Z" fill="#F0F0F0"/>
<path d="M223.458 204.706H220.858V207.606H223.458V204.706Z" fill="#F0F0F0"/>
<path d="M223.458 209.575H220.858V212.475H223.458V209.575Z" fill="#F0F0F0"/>
<path d="M223.458 214.443H220.858V217.344H223.458V214.443Z" fill="#F0F0F0"/>
<path d="M223.458 219.312H220.858V222.212H223.458V219.312Z" fill="#F0F0F0"/>
<path d="M223.458 224.181H220.858V227.081H223.458V224.181Z" fill="#F0F0F0"/>
<path d="M223.458 229.049H220.858V231.95H223.458V229.049Z" fill="#F0F0F0"/>
<path d="M223.458 233.906H220.858V236.807H223.458V233.906Z" fill="#F0F0F0"/>
<path d="M223.458 238.775H220.858V241.675H223.458V238.775Z" fill="#F0F0F0"/>
<path d="M223.458 243.644H220.858V246.544H223.458V243.644Z" fill="#F0F0F0"/>
<path d="M223.458 248.513H220.858V251.413H223.458V248.513Z" fill="#F0F0F0"/>
<path d="M223.458 253.381H220.858V256.281H223.458V253.381Z" fill="#F0F0F0"/>
<path d="M464.716 198.381H462.116V201.282H464.716V198.381Z" fill="#F0F0F0"/>
<path d="M464.716 203.25H462.116V206.15H464.716V203.25Z" fill="#F0F0F0"/>
<path d="M464.716 208.119H462.116V211.019H464.716V208.119Z" fill="#F0F0F0"/>
<path d="M464.716 212.987H462.116V215.888H464.716V212.987Z" fill="#F0F0F0"/>
<path d="M464.716 217.856H462.116V220.756H464.716V217.856Z" fill="#F0F0F0"/>
<path d="M464.716 222.725H462.116V225.625H464.716V222.725Z" fill="#F0F0F0"/>
<path d="M464.716 227.594H462.116V230.494H464.716V227.594Z" fill="#F0F0F0"/>
<path d="M464.716 232.462H462.116V235.362H464.716V232.462Z" fill="#F0F0F0"/>
<path d="M464.716 237.331H462.116V240.231H464.716V237.331Z" fill="#F0F0F0"/>
<path d="M464.716 242.2H462.116V245.1H464.716V242.2Z" fill="#F0F0F0"/>
<path d="M464.716 247.057H462.116V249.957H464.716V247.057Z" fill="#F0F0F0"/>
<path d="M464.716 251.925H462.116V254.826H464.716V251.925Z" fill="#F0F0F0"/>
<path d="M464.716 256.794H462.116V259.694H464.716V256.794Z" fill="#F0F0F0"/>
<path d="M464.716 261.663H462.116V264.563H464.716V261.663Z" fill="#F0F0F0"/>
<path d="M464.716 266.531H462.116V269.432H464.716V266.531Z" fill="#F0F0F0"/>
<path d="M464.716 271.4H462.116V274.3H464.716V271.4Z" fill="#F0F0F0"/>
<path d="M464.716 276.269H462.116V279.169H464.716V276.269Z" fill="#F0F0F0"/>
<path d="M464.716 286.006H462.116V288.906H464.716V286.006Z" fill="#F0F0F0"/>
<path d="M464.716 290.875H462.116V293.775H464.716V290.875Z" fill="#F0F0F0"/>
<path d="M464.716 295.732H462.116V298.632H464.716V295.732Z" fill="#F0F0F0"/>
<path d="M464.716 300.6H462.116V303.501H464.716V300.6Z" fill="#F0F0F0"/>
<path d="M464.716 305.469H462.116V308.369H464.716V305.469Z" fill="#F0F0F0"/>
<path d="M460.582 198.381H457.982V201.282H460.582V198.381Z" fill="#F0F0F0"/>
<path d="M460.582 203.25H457.982V206.15H460.582V203.25Z" fill="#F0F0F0"/>
<path d="M460.582 208.119H457.982V211.019H460.582V208.119Z" fill="#F0F0F0"/>
<path d="M460.582 212.987H457.982V215.888H460.582V212.987Z" fill="#F0F0F0"/>
<path d="M460.582 217.856H457.982V220.756H460.582V217.856Z" fill="#F0F0F0"/>
<path d="M460.582 222.725H457.982V225.625H460.582V222.725Z" fill="#F0F0F0"/>
<path d="M460.582 227.594H457.982V230.494H460.582V227.594Z" fill="#F0F0F0"/>
<path d="M460.582 232.462H457.982V235.362H460.582V232.462Z" fill="#F0F0F0"/>
<path d="M460.582 237.331H457.982V240.231H460.582V237.331Z" fill="#F0F0F0"/>
<path d="M460.582 242.2H457.982V245.1H460.582V242.2Z" fill="#F0F0F0"/>
<path d="M460.582 247.057H457.982V249.957H460.582V247.057Z" fill="#F0F0F0"/>
<path d="M460.582 251.925H457.982V254.826H460.582V251.925Z" fill="#F0F0F0"/>
<path d="M460.582 256.794H457.982V259.694H460.582V256.794Z" fill="#F0F0F0"/>
<path d="M460.582 261.663H457.982V264.563H460.582V261.663Z" fill="#F0F0F0"/>
<path d="M460.582 266.531H457.982V269.432H460.582V266.531Z" fill="#F0F0F0"/>
<path d="M460.582 271.4H457.982V274.3H460.582V271.4Z" fill="#F0F0F0"/>
<path d="M460.582 300.6H457.982V303.501H460.582V300.6Z" fill="#F0F0F0"/>
<path d="M460.582 305.469H457.982V308.369H460.582V305.469Z" fill="#F0F0F0"/>
<path d="M456.458 198.381H453.858V201.282H456.458V198.381Z" fill="#F0F0F0"/>
<path d="M456.458 203.25H453.858V206.15H456.458V203.25Z" fill="#F0F0F0"/>
<path d="M456.458 208.119H453.858V211.019H456.458V208.119Z" fill="#F0F0F0"/>
<path d="M456.458 212.987H453.858V215.888H456.458V212.987Z" fill="#F0F0F0"/>
<path d="M456.458 217.856H453.858V220.756H456.458V217.856Z" fill="#F0F0F0"/>
<path d="M456.458 222.725H453.858V225.625H456.458V222.725Z" fill="#F0F0F0"/>
<path d="M456.458 227.594H453.858V230.494H456.458V227.594Z" fill="#F0F0F0"/>
<path d="M456.458 232.462H453.858V235.362H456.458V232.462Z" fill="#F0F0F0"/>
<path d="M456.458 237.331H453.858V240.231H456.458V237.331Z" fill="#F0F0F0"/>
<path d="M456.458 242.2H453.858V245.1H456.458V242.2Z" fill="#F0F0F0"/>
<path d="M456.458 247.057H453.858V249.957H456.458V247.057Z" fill="#F0F0F0"/>
<path d="M456.458 251.925H453.858V254.826H456.458V251.925Z" fill="#F0F0F0"/>
<path d="M456.458 256.794H453.858V259.694H456.458V256.794Z" fill="#F0F0F0"/>
<path d="M456.458 261.663H453.858V264.563H456.458V261.663Z" fill="#F0F0F0"/>
<path d="M456.458 266.531H453.858V269.432H456.458V266.531Z" fill="#F0F0F0"/>
<path d="M456.458 271.4H453.858V274.3H456.458V271.4Z" fill="#F0F0F0"/>
<path d="M456.458 281.137H453.858V284.038H456.458V281.137Z" fill="#F0F0F0"/>
<path d="M456.458 286.006H453.858V288.906H456.458V286.006Z" fill="#F0F0F0"/>
<path d="M456.458 290.875H453.858V293.775H456.458V290.875Z" fill="#F0F0F0"/>
<path d="M456.458 295.732H453.858V298.632H456.458V295.732Z" fill="#F0F0F0"/>
<path d="M456.458 305.469H453.858V308.369H456.458V305.469Z" fill="#F0F0F0"/>
<path d="M384.349 232.462H381.749V235.362H384.349V232.462Z" fill="#F0F0F0"/>
<path d="M384.349 237.331H381.749V240.231H384.349V237.331Z" fill="#F0F0F0"/>
<path d="M384.349 242.2H381.749V245.1H384.349V242.2Z" fill="#F0F0F0"/>
<path d="M384.349 247.057H381.749V249.957H384.349V247.057Z" fill="#F0F0F0"/>
<path d="M384.349 251.925H381.749V254.826H384.349V251.925Z" fill="#F0F0F0"/>
<path d="M384.349 256.794H381.749V259.694H384.349V256.794Z" fill="#F0F0F0"/>
<path d="M384.349 261.663H381.749V264.563H384.349V261.663Z" fill="#F0F0F0"/>
<path d="M384.349 266.531H381.749V269.432H384.349V266.531Z" fill="#F0F0F0"/>
<path d="M384.349 271.4H381.749V274.3H384.349V271.4Z" fill="#F0F0F0"/>
<path d="M384.349 276.269H381.749V279.169H384.349V276.269Z" fill="#F0F0F0"/>
<path d="M384.349 281.137H381.749V284.038H384.349V281.137Z" fill="#F0F0F0"/>
<path d="M384.349 286.006H381.749V288.906H384.349V286.006Z" fill="#F0F0F0"/>
<path d="M384.349 290.875H381.749V293.775H384.349V290.875Z" fill="#F0F0F0"/>
<path d="M384.349 300.6H381.749V303.501H384.349V300.6Z" fill="#F0F0F0"/>
<path d="M384.349 305.469H381.749V308.369H384.349V305.469Z" fill="#F0F0F0"/>
<path d="M384.349 310.338H381.749V313.238H384.349V310.338Z" fill="#F0F0F0"/>
<path d="M384.349 315.207H381.749V318.107H384.349V315.207Z" fill="#F0F0F0"/>
<path d="M384.349 324.944H381.749V327.844H384.349V324.944Z" fill="#F0F0F0"/>
<path d="M384.349 329.812H381.749V332.713H384.349V329.812Z" fill="#F0F0F0"/>
<path d="M384.349 334.681H381.749V337.581H384.349V334.681Z" fill="#F0F0F0"/>
<path d="M380.214 232.462H377.615V235.362H380.214V232.462Z" fill="#F0F0F0"/>
<path d="M380.214 237.331H377.615V240.231H380.214V237.331Z" fill="#F0F0F0"/>
<path d="M380.214 242.2H377.615V245.1H380.214V242.2Z" fill="#F0F0F0"/>
<path d="M380.214 247.057H377.615V249.957H380.214V247.057Z" fill="#F0F0F0"/>
<path d="M380.214 251.925H377.615V254.826H380.214V251.925Z" fill="#F0F0F0"/>
<path d="M380.214 256.794H377.615V259.694H380.214V256.794Z" fill="#F0F0F0"/>
<path d="M380.214 261.663H377.615V264.563H380.214V261.663Z" fill="#F0F0F0"/>
<path d="M380.214 266.531H377.615V269.432H380.214V266.531Z" fill="#F0F0F0"/>
<path d="M380.214 271.4H377.615V274.3H380.214V271.4Z" fill="#F0F0F0"/>
<path d="M380.214 276.269H377.615V279.169H380.214V276.269Z" fill="#F0F0F0"/>
<path d="M380.214 281.137H377.615V284.038H380.214V281.137Z" fill="#F0F0F0"/>
<path d="M380.214 286.006H377.615V288.906H380.214V286.006Z" fill="#F0F0F0"/>
<path d="M380.214 290.875H377.615V293.775H380.214V290.875Z" fill="#F0F0F0"/>
<path d="M380.214 305.469H377.615V308.369H380.214V305.469Z" fill="#F0F0F0"/>
<path d="M380.214 310.338H377.615V313.238H380.214V310.338Z" fill="#F0F0F0"/>
<path d="M380.214 320.075H377.615V322.975H380.214V320.075Z" fill="#F0F0F0"/>
<path d="M380.214 324.944H377.615V327.844H380.214V324.944Z" fill="#F0F0F0"/>
<path d="M380.214 329.812H377.615V332.713H380.214V329.812Z" fill="#F0F0F0"/>
<path d="M380.214 334.681H377.615V337.581H380.214V334.681Z" fill="#F0F0F0"/>
<path d="M376.08 232.462H373.48V235.362H376.08V232.462Z" fill="#F0F0F0"/>
<path d="M376.08 237.331H373.48V240.231H376.08V237.331Z" fill="#F0F0F0"/>
<path d="M376.08 242.2H373.48V245.1H376.08V242.2Z" fill="#F0F0F0"/>
<path d="M376.08 247.057H373.48V249.957H376.08V247.057Z" fill="#F0F0F0"/>
<path d="M376.08 251.925H373.48V254.826H376.08V251.925Z" fill="#F0F0F0"/>
<path d="M376.08 256.794H373.48V259.694H376.08V256.794Z" fill="#F0F0F0"/>
<path d="M376.08 261.663H373.48V264.563H376.08V261.663Z" fill="#F0F0F0"/>
<path d="M376.08 266.531H373.48V269.432H376.08V266.531Z" fill="#F0F0F0"/>
<path d="M376.08 271.4H373.48V274.3H376.08V271.4Z" fill="#F0F0F0"/>
<path d="M376.08 276.269H373.48V279.169H376.08V276.269Z" fill="#F0F0F0"/>
<path d="M376.08 281.137H373.48V284.038H376.08V281.137Z" fill="#F0F0F0"/>
<path d="M376.08 286.006H373.48V288.906H376.08V286.006Z" fill="#F0F0F0"/>
<path d="M376.08 290.875H373.48V293.775H376.08V290.875Z" fill="#F0F0F0"/>
<path d="M376.08 295.732H373.48V298.632H376.08V295.732Z" fill="#F0F0F0"/>
<path d="M376.08 305.469H373.48V308.369H376.08V305.469Z" fill="#F0F0F0"/>
<path d="M376.08 315.207H373.48V318.107H376.08V315.207Z" fill="#F0F0F0"/>
<path d="M376.08 320.075H373.48V322.975H376.08V320.075Z" fill="#F0F0F0"/>
<path d="M376.08 324.944H373.48V327.844H376.08V324.944Z" fill="#F0F0F0"/>
<path d="M376.08 329.812H373.48V332.713H376.08V329.812Z" fill="#F0F0F0"/>
<path d="M376.08 334.681H373.48V337.581H376.08V334.681Z" fill="#F0F0F0"/>
<path d="M401.188 260.218H398.589V263.119H401.188V260.218Z" fill="#F0F0F0"/>
<path d="M401.188 265.075H398.589V267.976H401.188V265.075Z" fill="#F0F0F0"/>
<path d="M401.188 269.944H398.589V272.844H401.188V269.944Z" fill="#F0F0F0"/>
<path d="M401.188 274.813H398.589V277.713H401.188V274.813Z" fill="#F0F0F0"/>
<path d="M401.188 279.681H398.589V282.582H401.188V279.681Z" fill="#F0F0F0"/>
<path d="M401.188 284.55H398.589V287.45H401.188V284.55Z" fill="#F0F0F0"/>
<path d="M401.188 299.156H398.589V302.056H401.188V299.156Z" fill="#F0F0F0"/>
<path d="M401.188 304.025H398.589V306.925H401.188V304.025Z" fill="#F0F0F0"/>
<path d="M401.188 308.882H398.589V311.782H401.188V308.882Z" fill="#F0F0F0"/>
<path d="M401.188 313.75H398.589V316.651H401.188V313.75Z" fill="#F0F0F0"/>
<path d="M401.188 318.619H398.589V321.52H401.188V318.619Z" fill="#F0F0F0"/>
<path d="M401.188 323.488H398.589V326.388H401.188V323.488Z" fill="#F0F0F0"/>
<path d="M401.188 328.357H398.589V331.257H401.188V328.357Z" fill="#F0F0F0"/>
<path d="M397.054 260.218H394.454V263.119H397.054V260.218Z" fill="#F0F0F0"/>
<path d="M397.054 265.075H394.454V267.976H397.054V265.075Z" fill="#F0F0F0"/>
<path d="M397.054 269.944H394.454V272.844H397.054V269.944Z" fill="#F0F0F0"/>
<path d="M397.054 274.813H394.454V277.713H397.054V274.813Z" fill="#F0F0F0"/>
<path d="M397.054 279.681H394.454V282.582H397.054V279.681Z" fill="#F0F0F0"/>
<path d="M397.054 284.55H394.454V287.45H397.054V284.55Z" fill="#F0F0F0"/>
<path d="M397.054 299.156H394.454V302.056H397.054V299.156Z" fill="#F0F0F0"/>
<path d="M397.054 304.025H394.454V306.925H397.054V304.025Z" fill="#F0F0F0"/>
<path d="M397.054 308.882H394.454V311.782H397.054V308.882Z" fill="#F0F0F0"/>
<path d="M397.054 313.75H394.454V316.651H397.054V313.75Z" fill="#F0F0F0"/>
<path d="M397.054 318.619H394.454V321.52H397.054V318.619Z" fill="#F0F0F0"/>
<path d="M397.054 323.488H394.454V326.388H397.054V323.488Z" fill="#F0F0F0"/>
<path d="M397.054 333.225H394.454V336.126H397.054V333.225Z" fill="#F0F0F0"/>
<path d="M259.737 238.775H257.137V241.675H259.737V238.775Z" fill="#F0F0F0"/>
<path d="M259.737 243.644H257.137V246.544H259.737V243.644Z" fill="#F0F0F0"/>
<path d="M259.737 248.513H257.137V251.413H259.737V248.513Z" fill="#F0F0F0"/>
<path d="M259.737 253.381H257.137V256.281H259.737V253.381Z" fill="#F0F0F0"/>
<path d="M259.737 258.25H257.137V261.15H259.737V258.25Z" fill="#F0F0F0"/>
<path d="M259.737 263.119H257.137V266.019H259.737V263.119Z" fill="#F0F0F0"/>
<path d="M259.737 267.987H257.137V270.888H259.737V267.987Z" fill="#F0F0F0"/>
<path d="M259.737 272.856H257.137V275.756H259.737V272.856Z" fill="#F0F0F0"/>
<path d="M259.737 277.713H257.137V280.613H259.737V277.713Z" fill="#F0F0F0"/>
<path d="M259.737 282.582H257.137V285.482H259.737V282.582Z" fill="#F0F0F0"/>
<path d="M259.737 287.45H257.137V290.351H259.737V287.45Z" fill="#F0F0F0"/>
<path d="M259.737 297.188H257.137V300.088H259.737V297.188Z" fill="#F0F0F0"/>
<path d="M259.737 302.056H257.137V304.957H259.737V302.056Z" fill="#F0F0F0"/>
<path d="M259.737 306.925H257.137V309.825H259.737V306.925Z" fill="#F0F0F0"/>
<path d="M259.737 311.794H257.137V314.694H259.737V311.794Z" fill="#F0F0F0"/>
<path d="M259.737 316.662H257.137V319.563H259.737V316.662Z" fill="#F0F0F0"/>
<path d="M259.737 321.531H257.137V324.431H259.737V321.531Z" fill="#F0F0F0"/>
<path d="M259.737 326.388H257.137V329.288H259.737V326.388Z" fill="#F0F0F0"/>
<path d="M259.737 331.257H257.137V334.157H259.737V331.257Z" fill="#F0F0F0"/>
<path d="M255.613 238.775H253.013V241.675H255.613V238.775Z" fill="#F0F0F0"/>
<path d="M255.613 243.644H253.013V246.544H255.613V243.644Z" fill="#F0F0F0"/>
<path d="M255.613 248.513H253.013V251.413H255.613V248.513Z" fill="#F0F0F0"/>
<path d="M255.613 253.381H253.013V256.281H255.613V253.381Z" fill="#F0F0F0"/>
<path d="M255.613 258.25H253.013V261.15H255.613V258.25Z" fill="#F0F0F0"/>
<path d="M255.613 263.119H253.013V266.019H255.613V263.119Z" fill="#F0F0F0"/>
<path d="M255.613 267.987H253.013V270.888H255.613V267.987Z" fill="#F0F0F0"/>
<path d="M255.613 272.856H253.013V275.756H255.613V272.856Z" fill="#F0F0F0"/>
<path d="M255.613 277.713H253.013V280.613H255.613V277.713Z" fill="#F0F0F0"/>
<path d="M255.613 282.582H253.013V285.482H255.613V282.582Z" fill="#F0F0F0"/>
<path d="M255.613 287.45H253.013V290.351H255.613V287.45Z" fill="#F0F0F0"/>
<path d="M255.613 292.319H253.013V295.219H255.613V292.319Z" fill="#F0F0F0"/>
<path d="M255.613 297.188H253.013V300.088H255.613V297.188Z" fill="#F0F0F0"/>
<path d="M255.613 302.056H253.013V304.957H255.613V302.056Z" fill="#F0F0F0"/>
<path d="M255.613 306.925H253.013V309.825H255.613V306.925Z" fill="#F0F0F0"/>
<path d="M255.613 311.794H253.013V314.694H255.613V311.794Z" fill="#F0F0F0"/>
<path d="M255.613 316.662H253.013V319.563H255.613V316.662Z" fill="#F0F0F0"/>
<path d="M255.613 321.531H253.013V324.431H255.613V321.531Z" fill="#F0F0F0"/>
<path d="M255.613 326.388H253.013V329.288H255.613V326.388Z" fill="#F0F0F0"/>
<path d="M255.613 331.257H253.013V334.157H255.613V331.257Z" fill="#F0F0F0"/>
<path d="M280.105 257.737H277.506V260.638H280.105V257.737Z" fill="#F0F0F0"/>
<path d="M280.105 262.606H277.506V265.506H280.105V262.606Z" fill="#F0F0F0"/>
<path d="M280.105 267.475H277.506V270.375H280.105V267.475Z" fill="#F0F0F0"/>
<path d="M280.105 272.344H277.506V275.244H280.105V272.344Z" fill="#F0F0F0"/>
<path d="M280.105 277.2H277.506V280.101H280.105V277.2Z" fill="#F0F0F0"/>
<path d="M280.105 282.069H277.506V284.969H280.105V282.069Z" fill="#F0F0F0"/>
<path d="M280.105 286.938H277.506V289.838H280.105V286.938Z" fill="#F0F0F0"/>
<path d="M280.105 291.807H277.506V294.707H280.105V291.807Z" fill="#F0F0F0"/>
<path d="M280.105 296.675H277.506V299.576H280.105V296.675Z" fill="#F0F0F0"/>
<path d="M280.105 301.544H277.506V304.444H280.105V301.544Z" fill="#F0F0F0"/>
<path d="M275.971 257.737H273.371V260.638H275.971V257.737Z" fill="#F0F0F0"/>
<path d="M275.971 262.606H273.371V265.506H275.971V262.606Z" fill="#F0F0F0"/>
<path d="M275.971 267.475H273.371V270.375H275.971V267.475Z" fill="#F0F0F0"/>
<path d="M275.971 272.344H273.371V275.244H275.971V272.344Z" fill="#F0F0F0"/>
<path d="M275.971 277.2H273.371V280.101H275.971V277.2Z" fill="#F0F0F0"/>
<path d="M275.971 282.069H273.371V284.969H275.971V282.069Z" fill="#F0F0F0"/>
<path d="M275.971 286.938H273.371V289.838H275.971V286.938Z" fill="#F0F0F0"/>
<path d="M275.971 291.807H273.371V294.707H275.971V291.807Z" fill="#F0F0F0"/>
<path d="M275.971 296.675H273.371V299.576H275.971V296.675Z" fill="#F0F0F0"/>
<path d="M300.557 73.0187H296.193V344.5H300.557V73.0187Z" fill="#E0E0E0"/>
<path d="M382.73 73.0187H378.366V344.5H382.73V73.0187Z" fill="#E0E0E0"/>
<path d="M464.893 73.0187H460.529V344.5H464.893V73.0187Z" fill="#E0E0E0"/>
<path d="M185.842 381.26H149.73V323.22C149.73 320.39 151.787 318.083 154.335 318.083H181.249C183.786 318.083 185.853 320.378 185.853 323.22V381.26H185.842Z" fill="#F0F0F0"/>
<path d="M185.842 326.621H149.73V331.152H185.842V326.621Z" fill="#E6E6E6"/>
<path d="M179.255 373.607H170.256C168.888 373.607 167.781 374.842 167.781 376.368V381.26H181.729V376.368C181.74 374.842 180.622 373.607 179.255 373.607Z" fill="#E0E0E0"/>
<path d="M181.781 381.26H171.769C170.882 381.26 170.162 380.456 170.162 379.466C170.162 378.476 170.882 377.672 171.769 377.672H181.781C182.669 377.672 183.389 378.476 183.389 379.466C183.389 380.456 182.669 381.26 181.781 381.26Z" fill="#E6E6E6"/>
<path d="M342.115 60.2325C355.33 56.7512 363.513 41.9774 360.392 27.2342C357.272 12.491 344.03 3.36142 330.815 6.8427C317.601 10.324 309.417 25.0978 312.538 39.841C315.658 54.5842 328.9 63.7138 342.115 60.2325Z" fill="#E0E0E0"/>
<path d="M339.835 56.5797C351.235 54.5155 358.977 42.5317 357.127 29.8131C355.277 17.0944 344.535 8.45728 333.135 10.5214C321.735 12.5856 313.994 24.5694 315.844 37.288C317.694 50.0067 328.435 58.6438 339.835 56.5797Z" fill="#F0F0F0"/>
<path d="M337.463 17.5646V33.8712L347.151 27.7562" fill="#F0F0F0"/>
<path d="M337.463 17.5646V33.8712L347.151 27.7562" stroke="#E0E0E0" stroke-width="2" stroke-miterlimit="10" stroke-linecap="round" stroke-linejoin="round"/>
<path d="M101.195 301.311C99.3157 297.863 96.2255 300.857 96.2255 300.857C96.664 294.241 91.2143 289.722 91.2143 289.722C91.2143 289.722 97.5514 289.722 98.4388 282.978C99.3262 276.234 96.2255 279.367 93.3232 279.32C90.4208 279.274 87.3828 288.743 91.2143 294.055C95.0458 299.378 94.0122 308.463 85.18 317.198C83.0189 319.33 81.5573 322.172 80.5655 325.235C81.2336 317.21 81.6095 305.9 79.4902 298.353C75.8988 285.529 82.7475 282.081 84.7311 275.663C86.7251 269.245 79.4902 263.829 79.4902 263.829C79.4902 263.829 86.2866 260.381 82.9667 256.433C79.6468 252.484 72.7981 253.02 72.7981 258.18C72.7981 263.34 77.4439 265.308 77.4439 265.308C77.4439 265.308 82.7475 271.47 82.7475 274.685C82.7475 277.888 77.4439 284.795 77.4439 284.795C77.4439 284.795 79.8764 278.889 75.0114 278.633C70.1464 278.377 68.6013 285.529 70.5953 288.743C72.5893 291.946 75.8988 289.232 75.8988 289.232C75.8988 289.232 76.2851 296.139 77.4231 300.333C77.9242 302.173 77.6841 309.406 77.2665 316.93C76.2851 314.217 74.907 311.724 72.9652 309.802C64.1225 301.066 63.0994 291.981 66.9309 286.658C70.7623 281.335 67.7243 271.878 64.822 271.924C61.9197 271.971 58.819 268.826 59.7064 275.582C60.5938 282.337 66.9309 282.325 66.9309 282.325C66.9309 282.325 61.4707 286.856 61.9197 293.461C61.9197 293.461 58.8294 290.455 56.9502 293.915C53.599 300.076 61.3663 303.897 62.6818 300.868C62.6818 300.868 79.1665 313.89 75.1889 332.631L76.1181 334.157C76.0032 335.671 75.9197 336.58 75.9197 336.58L77.2142 335.963L78.6863 338.374C78.6132 343.056 79.0621 346.515 79.0621 346.515L83.0085 340.027C79.0308 321.287 95.5156 308.265 95.5156 308.265C96.7788 311.293 104.546 307.473 101.195 301.311Z" fill="#E0E0E0"/>
<path opacity="0.2" d="M101.195 301.311C99.3157 297.863 96.2255 300.857 96.2255 300.857C96.664 294.241 91.2143 289.722 91.2143 289.722C91.2143 289.722 97.5514 289.722 98.4388 282.978C99.3262 276.234 96.2255 279.367 93.3232 279.32C90.4208 279.274 87.3828 288.743 91.2143 294.055C95.0458 299.378 94.0122 308.463 85.18 317.198C83.0189 319.33 81.5573 322.172 80.5655 325.235C81.2336 317.21 81.6095 305.9 79.4902 298.353C75.8988 285.529 82.7475 282.081 84.7311 275.663C86.7251 269.245 79.4902 263.829 79.4902 263.829C79.4902 263.829 86.2866 260.381 82.9667 256.433C79.6468 252.484 72.7981 253.02 72.7981 258.18C72.7981 263.34 77.4439 265.308 77.4439 265.308C77.4439 265.308 82.7475 271.47 82.7475 274.685C82.7475 277.888 77.4439 284.795 77.4439 284.795C77.4439 284.795 79.8764 278.889 75.0114 278.633C70.1464 278.377 68.6013 285.529 70.5953 288.743C72.5893 291.946 75.8988 289.232 75.8988 289.232C75.8988 289.232 76.2851 296.139 77.4231 300.333C77.9242 302.173 77.6841 309.406 77.2665 316.93C76.2851 314.217 74.907 311.724 72.9652 309.802C64.1225 301.066 63.0994 291.981 66.9309 286.658C70.7623 281.335 67.7243 271.878 64.822 271.924C61.9197 271.971 58.819 268.826 59.7064 275.582C60.5938 282.337 66.9309 282.325 66.9309 282.325C66.9309 282.325 61.4707 286.856 61.9197 293.461C61.9197 293.461 58.8294 290.455 56.9502 293.915C53.599 300.076 61.3663 303.897 62.6818 300.868C62.6818 300.868 79.1665 313.89 75.1889 332.631L76.1181 334.157C76.0032 335.671 75.9197 336.58 75.9197 336.58L77.2142 335.963L78.6863 338.374C78.6132 343.056 79.0621 346.515 79.0621 346.515L83.0085 340.027C79.0308 321.287 95.5156 308.265 95.5156 308.265C96.7788 311.293 104.546 307.473 101.195 301.311Z" fill="#E0E0E0"/>
<path d="M97.9689 381.26H60.2074L56.1254 335.124H102.04L97.9689 381.26Z" fill="#E6E6E6"/>
<path d="M104.055 330.034H54.1105V340.214H104.055V330.034Z" fill="#F0F0F0"/>
<path d="M261 434C372.794 434 463.421 428.097 463.421 420.815C463.421 413.533 372.794 407.63 261 407.63C149.206 407.63 58.5789 413.533 58.5789 420.815C58.5789 428.097 149.206 434 261 434Z" fill="#F5F5F5"/>
<path d="M428.51 384.09C428.666 382.902 432.32 354.773 425.002 345.059C423.384 342.904 421.338 341.786 418.926 341.716C404.153 341.332 402.128 354.575 402.107 354.703L403.851 355.006C403.913 354.529 405.667 343.324 418.884 343.685C420.795 343.731 422.361 344.605 423.655 346.329C430.473 355.367 426.808 383.519 426.766 383.799L428.51 384.09Z" fill="#52921B"/>
<path d="M429.397 382.809L431.162 382.751C431.151 382.494 430.577 356.835 441.904 351.535C453.013 346.34 458.003 357.021 458.212 357.475L459.788 356.59C459.725 356.462 453.869 343.801 441.226 349.718C428.781 355.542 429.366 381.702 429.397 382.809Z" fill="#52921B"/>
<path d="M429.345 384.824C429.345 384.416 429.449 343.836 436.538 331.967C443.345 320.576 454.328 325.934 454.798 326.167L455.529 324.373C455.403 324.303 442.729 318.072 435.077 330.872C427.696 343.231 427.581 383.123 427.581 384.824H429.345Z" fill="#52921B"/>
<path d="M416.807 342.706C416.807 342.706 423.258 345.362 421.338 351.628C419.417 357.895 399.017 368.203 399.017 368.203C399.017 368.203 390.477 359.467 398.317 345.257C406.168 331.036 416.629 338.222 416.807 342.706Z" fill="#52921B"/>
<path d="M436.862 329.836C436.862 329.836 432.279 329.288 432.654 326.178C433.02 323.069 450.455 315.055 460.748 328.007C460.748 328.007 454.161 340.633 444.64 340.796C435.118 340.959 436.862 329.836 436.862 329.836Z" fill="#52921B"/>
<path d="M441.57 350.627C441.57 350.627 438.407 347.785 441.821 346.387C445.235 345.001 461.97 345.397 462.147 363.893C462.147 363.893 442.656 367.504 440.244 360.457C437.822 353.422 441.57 350.627 441.57 350.627Z" fill="#52921B"/>
<path opacity="0.2" d="M416.807 342.706C416.807 342.706 423.258 345.362 421.338 351.628C419.417 357.895 399.017 368.203 399.017 368.203C399.017 368.203 390.477 359.467 398.317 345.257C406.168 331.036 416.629 338.222 416.807 342.706Z" fill="black"/>
<path opacity="0.2" d="M436.862 329.836C436.862 329.836 432.279 329.288 432.654 326.178C433.02 323.069 450.455 315.055 460.748 328.007C460.748 328.007 454.161 340.633 444.64 340.796C435.118 340.959 436.862 329.836 436.862 329.836Z" fill="black"/>
<path opacity="0.2" d="M441.57 350.627C441.57 350.627 438.407 347.785 441.821 346.387C445.235 345.001 461.97 345.397 462.147 363.893C462.147 363.893 442.656 367.504 440.244 360.457C437.822 353.422 441.57 350.627 441.57 350.627Z" fill="black"/>
<path d="M413.34 421.782H443.596L446.853 384.824H410.083L413.34 421.782Z" fill="#52921B"/>
<path opacity="0.5" d="M413.34 421.782H443.596L446.853 384.824H410.083L413.34 421.782Z" fill="white"/>
<path d="M408.465 388.908H448.471V380.754H408.465V388.908Z" fill="#52921B"/>
<path opacity="0.2" d="M408.465 388.908H448.471V380.754H408.465V388.908Z" fill="white"/>
<path d="M379.097 395.295L349.02 391.999V344.838H337.097V391.987L306.894 395.295C303.898 395.621 301.612 398.44 301.612 401.794V406.838H341.889H344.102H384.38V401.794C384.38 398.428 382.104 395.621 379.097 395.295Z" fill="#263238"/>
<path opacity="0.2" d="M379.097 395.295L349.02 391.999V344.838H337.097V391.987L306.894 395.295C303.898 395.621 301.612 398.44 301.612 401.794V406.838H341.889H344.102H384.38V401.794C384.38 398.428 382.104 395.621 379.097 395.295Z" fill="white"/>
<path d="M304.796 421.782C309.103 421.782 312.594 417.886 312.594 413.081C312.594 408.276 309.103 404.38 304.796 404.38C300.489 404.38 296.997 408.276 296.997 413.081C296.997 417.886 300.489 421.782 304.796 421.782Z" fill="#263238"/>
<path d="M381.206 421.782C385.513 421.782 389.005 417.886 389.005 413.081C389.005 408.276 385.513 404.38 381.206 404.38C376.899 404.38 373.407 408.276 373.407 413.081C373.407 417.886 376.899 421.782 381.206 421.782Z" fill="#263238"/>
<path d="M346.754 354.971H339.352C336.972 354.971 335.04 352.816 335.04 350.161V312.97H351.066V350.161C351.076 352.816 349.145 354.971 346.754 354.971Z" fill="#263238"/>
<path opacity="0.3" d="M346.754 354.971H339.352C336.972 354.971 335.04 352.816 335.04 350.161V312.97H351.066V350.161C351.076 352.816 349.145 354.971 346.754 354.971Z" fill="white"/>
<path d="M371.559 239.241C371.559 239.241 373.835 302.138 358.134 312.958H376.049C376.049 312.958 389.934 291.527 386.008 239.241H371.559Z" fill="#263238"/>
<path opacity="0.3" d="M371.559 239.241C371.559 239.241 373.835 302.138 358.134 312.958H376.049C376.049 312.958 389.934 291.527 386.008 239.241H371.559Z" fill="white"/>
<path d="M307.072 304.165H376.936C379.818 304.165 382.156 306.774 382.156 309.988V317.781H301.852V309.988C301.852 306.774 304.19 304.165 307.072 304.165Z" fill="#263238"/>
<path d="M300.609 310.967H383.409C384.568 310.967 385.507 312.015 385.507 313.308V315.428C385.507 316.721 384.568 317.769 383.409 317.769H300.609C299.45 317.769 298.511 316.721 298.511 315.428V313.32C298.511 312.015 299.45 310.967 300.609 310.967Z" fill="#263238"/>
<path opacity="0.6" d="M300.609 310.967H383.409C384.568 310.967 385.507 312.015 385.507 313.308V315.428C385.507 316.721 384.568 317.769 383.409 317.769H300.609C299.45 317.769 298.511 316.721 298.511 315.428V313.32C298.511 312.015 299.45 310.967 300.609 310.967Z" fill="white"/>
<path d="M390.404 252.018H361.704C353.3 252.018 346.483 244.413 346.483 235.036V222.515C346.483 213.139 353.3 205.533 361.704 205.533H390.404C398.808 205.533 405.625 213.139 405.625 222.515V235.036C405.636 244.413 398.818 252.018 390.404 252.018Z" fill="#263238"/>
<path d="M274.624 154.132L268.893 137.278C268.893 137.278 271.346 134.739 269.665 132.165C267.984 129.591 257.409 122.346 255.477 123.627C253.546 124.897 249.276 129.696 251.583 132.363C253.901 135.03 264.142 139.468 264.142 139.468L269.206 161.587L274.624 154.132Z" fill="#E4897B"/>
<path d="M314.641 186.175C314.641 186.175 288.572 180.2 285.743 178.767C282.914 177.334 272.421 143.055 272.421 143.055L264.383 147.249C264.383 147.249 270.855 181.655 277.474 189.844C284.093 198.02 312.333 204.951 312.333 204.951L314.641 186.175Z" fill="#3E8CAB"/>
<path opacity="0.2" d="M312.333 204.927C312.333 204.927 312.166 204.892 311.853 204.799C310.423 204.438 305.976 203.273 300.682 201.538C292.09 198.754 281.254 194.491 277.474 189.82C270.866 181.632 264.383 147.225 264.383 147.225L272.421 143.032C272.421 143.032 282.914 177.323 285.753 178.744C288.582 180.165 314.641 186.14 314.641 186.14L312.333 204.927Z" fill="black"/>
<path d="M272.557 142.38L274.217 145.956L263.881 149.928L264.278 145.56L272.557 142.38Z" fill="#3E8CAB"/>
<path opacity="0.2" d="M312.532 204.461C311.081 204.228 306.56 203.448 301.163 202.178C304.243 196.25 313.263 193.198 313.263 193.198L312.532 204.461Z" fill="black"/>
<path d="M351.39 162.437C351.39 162.437 352.924 178.546 347.569 182.506C342.223 186.466 315.904 181.83 312.918 175.342C309.932 168.866 321.166 151.267 321.166 151.267L351.39 162.437Z" fill="#263238"/>
<path d="M244.912 374.399L251.782 376.251L255.258 365.675L258.411 356.054L250.591 352.339L247.585 364.01L244.912 374.399Z" fill="#E4897B"/>
<path opacity="0.2" d="M247.585 364.01L255.258 365.675L258.411 356.054L250.591 352.339L247.585 364.01Z" fill="black"/>
<path d="M248.274 358.431L257.795 362.379C257.795 362.379 283.195 291.527 288.415 291.282C293.635 291.038 346.786 318.293 360.107 303.175C373.428 288.068 354.167 251.646 354.167 251.646C354.167 251.646 322.126 246.544 319.715 254.616C319.245 256.177 318.733 259.24 318.357 261.861C317.992 264.33 317.741 266.403 317.741 266.403C317.741 266.403 317.731 266.403 317.721 266.392C316.729 266.112 284.563 256.852 271.889 266.403C259.016 276.117 248.274 358.431 248.274 358.431Z" fill="#3E8CAB"/>
<path opacity="0.6" d="M248.274 358.431L257.795 362.379C257.795 362.379 283.195 291.527 288.415 291.282C293.635 291.038 346.786 318.293 360.107 303.175C373.428 288.068 354.167 251.646 354.167 251.646C354.167 251.646 322.126 246.544 319.715 254.616C319.245 256.177 318.733 259.24 318.357 261.861C317.992 264.33 317.741 266.403 317.741 266.403C317.741 266.403 317.731 266.403 317.721 266.392C316.729 266.112 284.563 256.852 271.889 266.403C259.016 276.117 248.274 358.431 248.274 358.431Z" fill="white"/>
<path d="M303.042 404.625L309.88 402.668L308.565 391.719L307.343 381.679L298.887 382.529L301.079 394.223L303.042 404.625Z" fill="#E4897B"/>
<path opacity="0.2" d="M301.131 394.468L308.606 391.929L307.364 381.784L298.897 382.576L301.131 394.468Z" fill="black"/>
<path d="M261.731 358.442L247.856 353.189L247.271 359.525L257.785 363.672L261.731 358.442Z" fill="#3E8CAB"/>
<path d="M337.097 306.809C337.097 306.809 334.926 306.867 301.319 305.12C301.319 305.12 306.341 352.001 309.087 387.084L299.033 388.994C299.033 388.994 275.021 313.855 275.282 301.917C275.543 289.978 287.81 286.484 287.81 286.484C287.81 286.484 311.749 301.917 337.097 306.809Z" fill="#3E8CAB"/>
<path opacity="0.6" d="M337.097 306.809C337.097 306.809 334.926 306.867 301.319 305.12C301.319 305.12 306.341 352.001 309.087 387.084L299.033 388.994C299.033 388.994 275.021 313.855 275.282 301.917C275.543 289.978 287.81 286.484 287.81 286.484C287.81 286.484 311.749 301.917 337.097 306.809Z" fill="white"/>
<path opacity="0.1" d="M337.097 306.809C337.097 306.809 334.926 306.867 301.319 305.12C301.319 305.12 306.341 352.001 309.087 387.084L299.033 388.994C299.033 388.994 275.021 313.855 275.282 301.917C275.543 289.978 287.81 286.484 287.81 286.484C287.81 286.484 311.749 301.917 337.097 306.809Z" fill="black"/>
<path d="M310.548 383.682L296.736 385.43L299.409 391.475L310.59 389.879L310.548 383.682Z" fill="#3E8CAB"/>
<path opacity="0.1" d="M317.741 266.403L336.481 270.759C336.481 270.759 326.125 264.376 318.357 261.861C317.992 264.33 317.741 266.403 317.741 266.403Z" fill="black"/>
<path d="M353.394 246.078L354.167 251.646L319.715 254.604L318.796 248.035L353.394 246.078Z" fill="#263238"/>
<path opacity="0.2" d="M353.394 246.078L354.167 251.646L319.715 254.604L318.796 248.035L353.394 246.078Z" fill="black"/>
<path d="M342.511 255.398L344.214 255.203L343.322 245.528L341.619 245.723L342.511 255.398Z" fill="#3E8CAB"/>
<path d="M327.258 254.409L334.8 253.868L334.433 247.487L326.89 248.028L327.258 254.409Z" fill="white"/>
<path d="M321.401 256.43L323.104 256.235L322.212 246.561L320.509 246.756L321.401 256.43Z" fill="#3E8CAB"/>
<path opacity="0.6" d="M342.511 255.398L344.214 255.203L343.322 245.528L341.619 245.723L342.511 255.398Z" fill="white"/>
<path opacity="0.6" d="M321.401 256.43L323.104 256.235L322.212 246.561L320.509 246.756L321.401 256.43Z" fill="white"/>
<path d="M314.014 185.639C314.014 185.639 322.805 188.714 333.861 188.085C344.917 187.456 358.134 193.443 358.134 193.443L353.384 246.078L318.796 248.023C318.796 248.035 307.176 204.077 314.014 185.639Z" fill="#3E8CAB"/>
<path d="M319.579 155.914C319.579 155.914 321.521 130.348 340.678 139.643C364.721 151.302 345.606 182.436 333.861 176.041C322.105 169.647 319.579 155.914 319.579 155.914Z" fill="#263238"/>
<path opacity="0.2" d="M324.945 189.518L325.498 203.961L329.789 197.17C329.789 197.17 328.255 213.15 329.152 221.84C329.152 221.84 329.977 206.243 331.919 197.17L336.481 203.961L343.027 189.611C343.038 189.599 332.431 185.359 324.945 189.518Z" fill="black"/>
<path d="M330.875 192.196L340.783 189.075C334.675 184.393 337.755 173.91 337.755 173.91L327.941 177.753C328.463 179.571 328.797 181.108 328.996 182.436C330.019 189.261 327.252 189.809 327.252 189.809L330.875 192.196Z" fill="#E4897B"/>
<path opacity="0.2" d="M327.941 177.765C328.463 179.582 328.797 181.12 328.996 182.447C333.694 180.351 337.755 173.921 337.755 173.921L327.941 177.765Z" fill="black"/>
<path d="M334.352 145.012C325.665 142.869 321.834 147.365 319.214 157.196C315.946 169.484 316.666 178.965 328.056 178.976C343.528 179 348.78 148.576 334.352 145.012Z" fill="#E4897B"/>
<path d="M324.935 158.046C324.935 158.046 323.233 160.282 321.604 161.447C321.604 161.447 322.085 162.949 323.682 163.112L324.935 158.046Z" fill="#DE5753"/>
<path d="M330.416 158.558C330.238 159.35 330.478 160.096 330.958 160.224C331.428 160.352 331.961 159.816 332.128 159.024C332.305 158.232 332.065 157.487 331.585 157.359C331.115 157.23 330.593 157.766 330.416 158.558Z" fill="#263238"/>
<path d="M331.773 157.452L330.374 156.357C330.384 156.357 330.833 158.011 331.773 157.452Z" fill="#263238"/>
<path d="M321.625 155.973C321.448 156.765 321.688 157.51 322.168 157.638C322.638 157.766 323.17 157.23 323.337 156.438C323.515 155.646 323.275 154.901 322.794 154.773C322.325 154.645 321.803 155.18 321.625 155.973Z" fill="#263238"/>
<path d="M322.982 154.866L321.583 153.771C321.594 153.771 322.043 155.425 322.982 154.866Z" fill="#263238"/>
<path d="M331.825 151.884C331.825 151.884 334.341 152.129 335.302 154.284" stroke="#263238" stroke-width="0.7247" stroke-miterlimit="10" stroke-linecap="round" stroke-linejoin="round"/>
<path d="M325.592 149.916C325.592 149.916 324.183 148.902 321.97 149.858" stroke="#263238" stroke-width="0.7247" stroke-miterlimit="10" stroke-linecap="round" stroke-linejoin="round"/>
<path d="M340.605 163.695C340.605 163.695 338.12 154.726 339.958 148.728C339.958 148.728 324.298 136.626 319.579 155.914C319.579 155.914 321.333 138.187 336.346 141.483C351.337 144.779 346.462 169.146 337.306 174.504C337.296 174.515 342.129 169.297 340.605 163.695Z" fill="#263238"/>
<path d="M338.778 165.384C339.143 163.835 341.117 161.552 343.653 162.507C346.284 163.497 346.337 169.985 339.352 169.81C338.34 169.798 338.005 168.61 338.778 165.384Z" fill="#E4897B"/>
<path d="M322.126 166.781C322.429 168.063 322.575 170.381 322.575 170.381C322.763 170.404 322.961 170.427 323.149 170.439C325.738 170.683 327.023 169.845 327.649 168.831C327.994 168.284 328.129 167.667 328.192 167.166C328.265 166.583 328.192 166.152 328.192 166.152C326.751 166.933 324.308 166.921 323.014 166.84C322.471 166.828 322.126 166.781 322.126 166.781Z" fill="#263238"/>
<path d="M323.014 166.851L323.17 167.911C325.613 168.133 327.367 167.935 328.192 167.178C328.265 166.595 328.192 166.164 328.192 166.164C326.751 166.945 324.319 166.921 323.014 166.851Z" fill="white"/>
<path d="M323.149 170.439C325.738 170.683 327.023 169.845 327.649 168.831C326.762 168.785 325.686 168.843 324.715 169.193C323.984 169.472 323.494 169.95 323.149 170.439Z" fill="#DE5753"/>
<path d="M334.383 145.781C334.383 145.781 334.717 162.6 343.758 164.615C352.799 166.63 342.912 143.009 342.912 143.009C342.912 143.009 329.445 133.201 320.477 140.108C311.498 147.027 319.568 155.914 319.568 155.914C319.568 155.914 321.469 143.428 334.383 145.781Z" fill="#263238"/>
<path d="M334.696 144.674C334.696 144.674 331.47 155.309 337.839 160.888" stroke="#263238" stroke-width="0.5" stroke-miterlimit="10" stroke-linecap="round" stroke-linejoin="round"/>
<path d="M346.399 168.074C345.251 171.499 342.296 173.421 339.801 172.372C337.306 171.324 336.22 167.713 337.369 164.289C338.517 160.865 341.472 158.943 343.967 159.991C346.462 161.039 347.548 164.662 346.399 168.074Z" fill="#3E8CAB"/>
<path opacity="0.4" d="M346.399 168.074C345.251 171.499 342.296 173.421 339.801 172.372C337.306 171.324 336.22 167.713 337.369 164.289C338.517 160.865 341.472 158.943 343.967 159.991C346.462 161.039 347.548 164.662 346.399 168.074Z" fill="black"/>
<path d="M343.518 162.472C343.518 162.472 347.266 143.754 338.862 138.851C338.862 138.851 340.615 139.118 341.701 139.468C342.787 139.817 349.5 147.412 346.107 164.231L343.518 162.472Z" fill="#3E8CAB"/>
<path opacity="0.2" d="M343.518 162.472C343.518 162.472 347.266 143.754 338.862 138.851C338.862 138.851 340.615 139.118 341.701 139.468C342.787 139.817 349.5 147.412 346.107 164.231L343.518 162.472Z" fill="black"/>
<path d="M327.764 173.188C327.555 173.153 327.346 173.118 327.137 173.083L327.304 171.93C334.873 173.304 340.501 168.843 340.553 168.797L341.169 169.74C340.939 169.926 335.458 174.317 327.764 173.188Z" fill="#3E8CAB"/>
<g opacity="0.2">
<path d="M327.764 173.188C327.555 173.153 327.346 173.118 327.137 173.083L327.304 171.93C334.873 173.304 340.501 168.843 340.553 168.797L341.169 169.74C340.939 169.926 335.458 174.317 327.764 173.188Z" fill="black"/>
</g>
<path d="M346.044 167.608C345.282 169.868 343.33 171.138 341.68 170.45C340.031 169.763 339.31 167.364 340.073 165.104C340.835 162.845 342.787 161.575 344.436 162.262C346.086 162.961 346.806 165.349 346.044 167.608Z" fill="#3E8CAB"/>
<path d="M326.835 173.56L325.999 173.432C325.373 173.339 324.935 172.71 325.018 172.011C325.102 171.312 325.665 170.823 326.292 170.916L327.127 171.045C327.753 171.138 328.192 171.767 328.108 172.466C328.025 173.164 327.451 173.654 326.835 173.56Z" fill="#3E8CAB"/>
<path opacity="0.4" d="M326.835 173.56L325.999 173.432C325.373 173.339 324.935 172.71 325.018 172.011C325.102 171.312 325.665 170.823 326.292 170.916L327.127 171.045C327.753 171.138 328.192 171.767 328.108 172.466C328.025 173.164 327.451 173.654 326.835 173.56Z" fill="black"/>
<path d="M338.12 185.08L331.919 191.87L334.404 200.198L343.038 189.599L338.12 185.08Z" fill="#3E8CAB"/>
<path d="M329.152 186.501L330.155 191.731L326.95 199.127L324.945 189.518L329.152 186.501Z" fill="#3E8CAB"/>
<path d="M336.794 190.974L340.396 176.263C340.396 176.263 338.653 172.594 339.029 171.837C339.404 171.068 341.284 161.191 342.62 160.119C343.956 159.048 349.448 160.876 350.011 161.878C350.565 162.88 344.75 176.263 344.75 176.263L342.63 192.197L336.794 190.974Z" fill="#E4897B"/>
<path d="M358.134 193.443C368.041 204.764 348.174 230.412 336.794 229.317C325.415 228.222 337.076 181.725 337.076 181.725L344.363 183.065C344.363 183.065 341.806 203.192 342.609 204.764C343.424 206.337 354.803 189.634 358.134 193.443Z" fill="#3E8CAB"/>
<path opacity="0.2" d="M358.134 193.443C368.041 204.764 348.174 230.412 336.794 229.317C325.415 228.222 337.076 181.725 337.076 181.725L344.363 183.065C344.363 183.065 341.806 203.192 342.609 204.764C343.424 206.337 354.803 189.634 358.134 193.443Z" fill="black"/>
<path d="M336.481 180.234L335.406 184.078L345.564 185.08V181.725L336.481 180.234Z" fill="#3E8CAB"/>
<path opacity="0.6" d="M321.093 221.152H316.979C316.52 221.152 316.155 220.745 316.155 220.232V211.566C316.155 211.054 316.52 210.646 316.979 210.646H321.093C321.552 210.646 321.917 211.054 321.917 211.566V220.232C321.917 220.745 321.542 221.152 321.093 221.152Z" fill="white"/>
<path opacity="0.2" d="M321.166 211.333H316.489V218.473H321.166V211.333Z" fill="black"/>
<path d="M319.454 208.107H318.42V212.312H319.454V208.107Z" fill="#263238"/>
<path d="M233.553 389.285C234.597 388.749 235.725 388.435 236.863 388.342C236.863 388.342 240.83 385.732 244.755 375.622L249.172 375.599C250.706 375.622 252.053 376.706 252.565 378.313C252.638 378.534 252.679 378.767 252.69 379C252.648 380.188 252.533 381.376 252.345 382.553C251.949 386.245 249.767 394.154 249.767 394.154L249.015 393.944L250.372 386.583C250.821 384.079 248.472 386.501 247.376 389.017C246.28 391.533 244.609 394.072 239.723 392.826C234.054 391.335 231.768 390.426 233.553 389.285Z" fill="#3E8CAB"/>
<path d="M245.559 372.967C245.559 372.967 240.037 385.849 236.863 388.342C236.863 388.342 241.122 391.172 245.559 384.871C251.291 376.717 252.7 378.989 252.7 378.989C252.7 378.989 252.46 376.193 252.011 374.83C251.145 372.198 245.559 372.967 245.559 372.967Z" fill="#E4897B"/>
<path d="M294.335 419.976C295.233 419.184 296.256 418.579 297.352 418.183C297.352 418.183 300.651 414.607 302.321 403.74L306.612 402.54C308.105 402.156 309.65 402.843 310.486 404.275C310.6 404.473 310.694 404.683 310.757 404.904C310.966 406.069 311.112 407.257 311.185 408.445C311.582 412.138 311.143 420.396 311.143 420.396L310.371 420.384L310.131 412.871C310.037 410.321 308.262 413.291 307.74 416.028C307.218 418.765 306.132 421.677 301.121 421.758C295.264 421.84 292.842 421.549 294.335 419.976Z" fill="#3E8CAB"/>
<path d="M302.53 400.956C302.53 400.956 299.91 414.933 297.352 418.183C297.352 418.183 302.092 419.813 305.057 412.51C308.899 403.064 310.747 404.916 310.747 404.916C310.747 404.916 309.922 402.272 309.191 401.061C307.792 398.719 302.53 400.956 302.53 400.956Z" fill="#E4897B"/>
<path d="M399.601 148.239H363.145C360.222 148.239 357.852 145.595 357.852 142.333V124.932C357.852 121.67 360.222 119.026 363.145 119.026H399.601C402.525 119.026 404.894 121.67 404.894 124.932V142.333C404.894 145.595 402.525 148.239 399.601 148.239Z" fill="#89B465"/>
<path d="M370.463 144.907L359.48 161.563L377.197 146.026L370.463 144.907Z" fill="#89B465"/>
<path d="M370.871 133.633C370.871 134.576 370.181 135.356 369.325 135.356C368.48 135.356 367.78 134.588 367.78 133.633C367.78 132.689 368.469 131.909 369.325 131.909C370.181 131.92 370.871 132.689 370.871 133.633Z" fill="white"/>
<path d="M378.899 133.633C378.899 134.576 378.21 135.356 377.354 135.356C376.498 135.356 375.809 134.588 375.809 133.633C375.809 132.689 376.498 131.909 377.354 131.909C378.21 131.909 378.899 132.689 378.899 133.633Z" fill="white"/>
<path d="M386.927 133.633C386.927 134.576 386.238 135.356 385.382 135.356C384.537 135.356 383.837 134.588 383.837 133.633C383.837 132.689 384.526 131.909 385.382 131.909C386.238 131.92 386.927 132.689 386.927 133.633Z" fill="white"/>
<path d="M394.956 133.633C394.956 134.576 394.267 135.356 393.41 135.356C392.565 135.356 391.865 134.588 391.865 133.633C391.865 132.689 392.554 131.909 393.41 131.909C394.267 131.92 394.956 132.689 394.956 133.633Z" fill="white"/>
<path d="M253.097 125.27L227.101 109.65C226.402 109.231 226.13 108.252 226.517 107.46L234.806 90.2919C235.182 89.5115 236.059 89.2087 236.769 89.6396L262.764 105.259C263.464 105.678 263.735 106.657 263.349 107.449L255.06 124.617C254.673 125.398 253.796 125.689 253.097 125.27Z" fill="#52921B"/>
<path opacity="0.7" d="M253.097 125.27L227.101 109.65C226.402 109.231 226.13 108.252 226.517 107.46L234.806 90.2919C235.182 89.5115 236.059 89.2087 236.769 89.6396L262.764 105.259C263.464 105.678 263.735 106.657 263.349 107.449L255.06 124.617C254.673 125.398 253.796 125.689 253.097 125.27Z" fill="white"/>
<path opacity="0.2" d="M234.117 91.7129L242.25 108.66C242.887 109.976 244.171 110.745 245.497 110.594L262.42 108.73L245.183 111.56C243.638 111.817 242.124 110.908 241.467 109.324L234.117 91.7129Z" fill="black"/>
<path d="M214.375 88.5564C214.646 82.0804 218.948 69.0235 224.178 65.0284C229.409 61.0332 225.963 66.5658 225.963 66.5658C225.963 66.5658 230.922 61.1847 233.532 61.3477C236.153 61.4991 233.532 64.8769 233.532 64.8769C233.532 64.8769 238.898 61.1847 241.383 61.3361C243.857 61.4875 241.383 64.7139 241.383 64.7139C241.383 64.7139 245.789 61.1847 247.574 62.8736C249.359 64.5625 224.721 82.6861 221.965 90.059C219.23 97.4319 214.093 95.114 214.375 88.5564Z" fill="#52921B"/>
<path opacity="0.4" d="M214.375 88.5564C214.646 82.0804 218.948 69.0235 224.178 65.0284C229.409 61.0332 225.963 66.5658 225.963 66.5658C225.963 66.5658 230.922 61.1847 233.532 61.3477C236.153 61.4991 233.532 64.8769 233.532 64.8769C233.532 64.8769 238.898 61.1847 241.383 61.3361C243.857 61.4875 241.383 64.7139 241.383 64.7139C241.383 64.7139 245.789 61.1847 247.574 62.8736C249.359 64.5625 224.721 82.6861 221.965 90.059C219.23 97.4319 214.093 95.114 214.375 88.5564Z" fill="white"/>
<path d="M235.547 87.6013L238.836 89.9541C239.076 90.1288 238.951 90.5365 238.669 90.5132L235.213 90.2104L235.506 93.1689C235.537 93.495 235.182 93.6697 234.984 93.4251L232.99 90.9092L235.547 87.6013Z" fill="#52921B"/>
<path opacity="0.3" d="M235.547 87.6013L238.836 89.9541C239.076 90.1288 238.951 90.5365 238.669 90.5132L235.213 90.2104L235.506 93.1689C235.537 93.495 235.182 93.6697 234.984 93.4251L232.99 90.9092L235.547 87.6013Z" fill="white"/>
<path d="M189.35 73.0186C189.35 73.0186 193.892 69.4894 200.782 71.784C200.782 71.784 202.766 81.9174 208.174 85.2952C211.149 87.1472 218.426 86.9957 224.189 84.9108C231.027 82.4415 234.378 82.4415 235.62 85.2952C236.79 87.9974 235.485 91.1306 230.254 92.5167C225.024 93.9027 220.889 104.036 211.389 104.188C201.889 104.339 196.888 93.7164 199.279 84.375C199.268 84.375 196.376 77.4098 189.35 73.0186Z" fill="#52921B"/>
<path opacity="0.5" d="M189.35 73.0186C189.35 73.0186 193.892 69.4894 200.782 71.784C200.782 71.784 202.766 81.9174 208.174 85.2952C211.149 87.1472 218.426 86.9957 224.189 84.9108C231.027 82.4415 234.378 82.4415 235.62 85.2952C236.79 87.9974 235.485 91.1306 230.254 92.5167C225.024 93.9027 220.889 104.036 211.389 104.188C201.889 104.339 196.888 93.7164 199.279 84.375C199.268 84.375 196.376 77.4098 189.35 73.0186Z" fill="white"/>
<path d="M233 87.217C233 87.5082 232.791 87.7295 232.541 87.7295C232.28 87.7295 232.071 87.4965 232.071 87.217C232.071 86.9258 232.28 86.6929 232.541 86.6929C232.791 86.7045 233 86.9375 233 87.217Z" fill="#263238"/>
<path d="M209.176 95.7546C203.57 97.4668 191.104 96.931 186.083 92.6098C181.061 88.2885 186.845 90.2337 186.845 90.2337C186.845 90.2337 180.727 86.6346 180.059 83.8159C179.38 80.9972 183.065 82.721 183.065 82.721C183.065 82.721 178.263 78.1668 177.626 75.4879C177 72.8089 180.508 74.4396 180.508 74.4396C180.508 74.4396 176.133 70.8521 177.021 68.4294C177.908 66.0067 200.97 86.5647 208.101 87.217C215.252 87.8576 214.855 94.0191 209.176 95.7546Z" fill="#52921B"/>
<path opacity="0.4" d="M209.176 95.7546C203.57 97.4668 191.104 96.931 186.083 92.6098C181.061 88.2885 186.845 90.2337 186.845 90.2337C186.845 90.2337 180.727 86.6346 180.059 83.8159C179.38 80.9972 183.065 82.721 183.065 82.721C183.065 82.721 178.263 78.1668 177.626 75.4879C177 72.8089 180.508 74.4396 180.508 74.4396C180.508 74.4396 176.133 70.8521 177.021 68.4294C177.908 66.0067 200.97 86.5647 208.101 87.217C215.252 87.8576 214.855 94.0191 209.176 95.7546Z" fill="white"/>
<path d="M172.427 66.9851C171.446 66.6008 170.454 66.228 169.452 65.8903" stroke="#52921B" stroke-width="0.75" stroke-linecap="round" stroke-linejoin="round"/>
<path d="M163.355 64.1548C159.701 63.3045 155.974 62.7454 152.278 62.4543C142.13 61.6622 126.209 60.5441 119.997 71.8305C114.328 82.1153 124.079 99.6566 127.535 109.208C131.774 120.902 136.816 135.356 131.805 147.738C121.511 173.176 77.4648 159.968 62.6086 136.533" stroke="#52921B" stroke-width="0.75" stroke-linecap="round" stroke-linejoin="round" stroke-dasharray="6.03 6.03"/>
<path d="M60.9278 133.586C60.4058 132.561 59.936 131.513 59.5393 130.453" stroke="#52921B" stroke-width="0.75" stroke-linecap="round" stroke-linejoin="round"/>
<path d="M187.722 226.068H148.091V235.129H187.722V226.068Z" fill="white"/>
<path opacity="0.1" d="M187.722 226.068H148.091V235.129H187.722V226.068Z" fill="black"/>
<path opacity="0.1" d="M164.785 226.068H148.091V235.129H164.785V226.068Z" fill="black"/>
<path opacity="0.1" d="M148.091 227.372H183.368L148.091 228.49V227.372Z" fill="black"/>
<path opacity="0.1" d="M187.722 228.945L157.143 229.795H187.722V228.945Z" fill="black"/>
<path opacity="0.1" d="M149.71 231.484L164.785 230.785L186.949 231.484L164.785 231.868L149.71 231.484Z" fill="black"/>
<path opacity="0.1" d="M148.091 233.406H174.212L148.091 234.093V233.406Z" fill="black"/>
<path opacity="0.1" d="M187.659 234.093L170.224 234.454H187.722L187.659 234.093Z" fill="black"/>
<path d="M182.209 216.994H142.579V226.056H182.209V216.994Z" fill="white"/>
<path opacity="0.1" d="M182.209 216.994H142.579V226.056H182.209V216.994Z" fill="black"/>
<path opacity="0.1" d="M159.273 216.994H142.579V226.056H159.273V216.994Z" fill="black"/>
<path opacity="0.1" d="M142.579 218.31H177.856L142.579 219.417V218.31Z" fill="black"/>
<path opacity="0.1" d="M182.209 219.883L151.631 220.721H182.209V219.883Z" fill="black"/>
<path opacity="0.1" d="M144.187 222.41L159.262 221.723L181.426 222.41L159.262 222.795L144.187 222.41Z" fill="black"/>
<path opacity="0.1" d="M142.579 224.332H168.7L142.579 225.019V224.332Z" fill="black"/>
<path opacity="0.1" d="M182.147 225.019L164.701 225.38H182.209L182.147 225.019Z" fill="black"/>
<path d="M186.73 207.932H147.1V216.994H186.73V207.932Z" fill="white"/>
<path opacity="0.1" d="M186.73 207.932H147.1V216.994H186.73V207.932Z" fill="black"/>
<path opacity="0.1" d="M163.793 207.932H147.1V216.994H163.793V207.932Z" fill="black"/>
<path opacity="0.1" d="M147.1 209.237H182.376L147.1 210.355V209.237Z" fill="black"/>
<path opacity="0.1" d="M186.73 210.809L156.151 211.66H186.73V210.809Z" fill="black"/>
<path opacity="0.1" d="M148.718 213.349L163.793 212.65L185.957 213.349L163.793 213.733L148.718 213.349Z" fill="black"/>
<path opacity="0.1" d="M147.1 215.27H173.22L147.1 215.958V215.27Z" fill="black"/>
<path opacity="0.1" d="M186.678 215.958L169.232 216.319H186.73L186.678 215.958Z" fill="black"/>
<path d="M213.133 234.943L214.156 230.599H256.49L275.992 232.777L276.733 234.943H213.133Z" fill="#263238"/>
<path opacity="0.4" d="M256.49 230.599V234.943H213.133L214.156 230.599H256.49Z" fill="black"/>
<path d="M247.992 209.808C248.18 212.102 246.676 213.966 244.63 213.966H179.777C177.72 213.966 175.904 212.102 175.716 209.808L171.863 163.485C171.822 163.008 171.853 162.553 171.947 162.134C172.312 160.503 173.596 159.327 175.225 159.327H240.078C242.135 159.327 243.952 161.191 244.139 163.485L247.992 209.808Z" fill="#263238"/>
<path opacity="0.4" d="M244.4 213.966H179.777C177.72 213.966 175.904 212.102 175.716 209.808L171.863 163.485C171.822 163.008 171.853 162.553 171.947 162.134H236.57C238.617 162.134 240.433 163.998 240.632 166.292L244.484 212.615C244.526 213.092 244.494 213.546 244.4 213.966Z" fill="black"/>
<path d="M199.843 185.546H213.258L209.688 228.409L230.902 231.961V234.943H186.218V231.961L195.374 228.409L199.843 185.546Z" fill="#263238"/>
<path opacity="0.1" d="M213.258 185.546L203.319 234.267L195.374 234L199.843 185.546H213.258Z" fill="white"/>
<path d="M213.195 421.782H206.806L195.312 243.283H203.799L213.195 421.782Z" fill="#263238"/>
<path opacity="0.4" d="M213.206 421.782H206.806L195.875 252.146L195.312 243.574H203.799L204.259 252.146L213.206 421.782Z" fill="white"/>
<path opacity="0.2" d="M204.259 251.727H195.875L195.312 243.574H203.799L204.259 251.727Z" fill="black"/>
<path d="M260.133 421.782H253.744L252.7 243.283H261.177L260.133 421.782Z" fill="#263238"/>
<path opacity="0.5" d="M261.188 243.574L261.021 272.367L260.144 421.782H253.744L252.867 272.367L252.7 243.574H261.188Z" fill="white"/>
<path opacity="0.2" d="M261.188 243.574L261.021 272.693H252.867L252.7 243.574H261.188Z" fill="black"/>
<path d="M328.035 421.782H321.646L310.152 243.283H318.639L328.035 421.782Z" fill="#263238"/>
<path opacity="0.5" d="M328.046 421.782H321.646L310.715 252.146L310.152 243.574H318.639L319.099 252.146L328.046 421.782Z" fill="white"/>
<path opacity="0.2" d="M319.099 251.727H310.715L310.152 243.574H318.639L319.099 251.727Z" fill="black"/>
<path d="M140.032 421.782H133.642L143.038 243.283H151.526L140.032 421.782Z" fill="#263238"/>
<path opacity="0.5" d="M151.526 243.574L150.962 252.146L140.032 421.782H133.642L142.579 252.146L143.038 243.574H151.526Z" fill="white"/>
<path opacity="0.2" d="M143.038 243.574H151.526L150.962 251.727H142.579L143.038 243.574Z" fill="black"/>
<path d="M323.108 247.755H138.57C137.328 247.755 136.315 246.626 136.315 245.239V238.822H325.363V245.239C325.363 246.626 324.35 247.755 323.108 247.755Z" fill="#52921B"/>
<path opacity="0.6" d="M323.108 247.755H138.57C137.328 247.755 136.315 246.626 136.315 245.239V238.822H325.363V245.239C325.363 246.626 324.35 247.755 323.108 247.755Z" fill="white"/>
<path opacity="0.2" d="M325.363 238.81H136.315V243.283H325.363V238.81Z" fill="black"/>
<path d="M329.33 239.986H132.348C131.106 239.986 130.093 238.857 130.093 237.471C130.093 236.085 131.106 234.955 132.348 234.955H329.33C330.572 234.955 331.585 236.085 331.585 237.471C331.585 238.857 330.572 239.986 329.33 239.986Z" fill="#52921B"/>
<path opacity="0.6" d="M329.33 239.986H132.348C131.106 239.986 130.093 238.857 130.093 237.471C130.093 236.085 131.106 234.955 132.348 234.955H329.33C330.572 234.955 331.585 236.085 331.585 237.471C331.585 238.857 330.572 239.986 329.33 239.986Z" fill="white"/>
<path d="M282.726 227.186L285.148 223.132C285.628 222.329 286.442 221.84 287.319 221.84H290.389C290.65 221.84 290.9 221.886 291.14 221.968L302.092 225.672C302.718 225.881 303.24 226.347 303.574 226.965L305.14 229.911L282.726 227.186Z" fill="#52921B"/>
<path opacity="0.2" d="M305.151 229.911L289.209 227.978L282.726 227.186L285.148 223.132C285.628 222.329 286.442 221.84 287.319 221.84H290.389C290.65 221.84 290.9 221.886 291.151 221.968L291.391 222.049L302.092 225.672C302.718 225.881 303.251 226.336 303.585 226.965L305.151 229.911Z" fill="black"/>
<path opacity="0.2" d="M305.151 229.911L289.209 227.978L291.391 222.049L302.092 225.672C302.718 225.881 303.251 226.336 303.585 226.964L305.151 229.911Z" fill="black"/>
<path d="M312.73 234.559V234.943H298.835H278.884L280.137 229.48C280.627 227.43 282.298 225.998 284.198 225.998H299.21C299.712 225.998 300.202 226.091 300.672 226.289L302.551 227.069L310.005 230.168C311.645 230.855 312.73 232.602 312.73 234.559Z" fill="#52921B"/>
<path opacity="0.2" d="M312.73 234.559V234.943H298.835L299.576 229.038C299.774 227.477 301.225 226.522 302.551 227.069L310.005 230.168C311.644 230.855 312.73 232.602 312.73 234.559Z" fill="black"/>
<path d="M300.996 230.925L305.412 216.121C305.6 215.48 306.257 215.189 306.8 215.492C307.208 215.725 307.416 216.249 307.301 216.75L303.574 232.555C303.574 232.555 301.1 233.674 300.996 230.925Z" fill="#263238"/>
<path opacity="0.2" d="M282.726 233.72H280.763L281.139 231.565H283.102L282.726 233.72Z" fill="black"/>
<path opacity="0.2" d="M285.649 233.627H283.686L284.062 231.484H286.025L285.649 233.627Z" fill="black"/>
</g>
<defs>
<clipPath id="clip0_56_499">
<rect width="522" height="434" fill="white"/>
</clipPath>
</defs>
</svg>
