<svg width="100" height="126" viewBox="0 0 100 126" fill="none" xmlns="http://www.w3.org/2000/svg">
<path d="M90.8556 84.9733L58.4866 117.342L49.9952 125.834L41.5405 117.374C42.9293 116.327 44.2416 115.182 45.4674 113.948C47.1632 112.253 48.6861 110.393 50.0136 108.397C54.0736 102.343 56.2387 95.2166 56.233 87.9272C56.2273 80.6378 54.0509 73.5152 49.9814 67.4675C51.0543 65.8565 52.2571 64.3361 53.578 62.9214L53.9037 62.6095L83.2634 33.2498L90.8694 40.8557C93.7654 43.7533 96.0623 47.193 97.6289 50.9783C99.1956 54.7637 100.001 58.8206 99.9999 62.9174C99.9987 67.0141 99.1905 71.0704 97.6215 74.8548C96.0525 78.6392 93.7534 82.0775 90.8556 84.9733Z" fill="url(#paint0_linear_28_1563)"/>
<path d="M83.25 33.2544L53.8903 62.614L53.5646 62.926C52.2438 64.3408 51.0409 65.8612 49.9681 67.4721C45.9186 73.5303 43.7597 80.6547 43.7655 87.9416C43.7712 95.2285 45.9412 102.35 50.0002 108.401C48.6727 110.398 47.1498 112.257 45.454 113.952C44.2282 115.186 42.9159 116.332 41.5272 117.379L9.14437 84.9733C6.24538 82.0763 3.94567 78.6365 2.37663 74.8504C0.807594 71.0642 0 67.006 0 62.9076C0 58.8093 0.807594 54.7511 2.37663 50.9649C3.94567 47.1788 6.24538 43.739 9.14437 40.842L16.7366 33.2682L49.9864 0L83.25 33.2544Z" fill="url(#paint1_linear_28_1563)"/>
<defs>
<linearGradient id="paint0_linear_28_1563" x1="66.1384" y1="79.0554" x2="22.0393" y2="34.9609" gradientUnits="userSpaceOnUse">
<stop stop-color="#478C0D"/>
<stop offset="1" stop-color="#231F20"/>
</linearGradient>
<linearGradient id="paint1_linear_28_1563" x1="62.5101" y1="75.4314" x2="99.2143" y2="112.136" gradientUnits="userSpaceOnUse">
<stop stop-color="#478C0D"/>
<stop offset="1" stop-color="#231F20"/>
</linearGradient>
</defs>
</svg>
