<svg width="200" height="49" viewBox="0 0 200 49" fill="none" xmlns="http://www.w3.org/2000/svg">
<path d="M196.5 32.6264L184.07 45.0568L180.811 48.3158L177.564 45.069C180.45 42.8934 182.394 39.6955 182.996 36.1319C183.599 32.5682 182.814 28.9091 180.803 25.9057C181.215 25.287 181.677 24.7032 182.185 24.1603L182.31 24.0407L193.578 12.7771L196.508 15.7065C198.745 17.9537 200.001 20.9964 200 24.1679C199.999 27.3394 198.74 30.3811 196.5 32.6264Z" fill="url(#paint0_linear_31_1832)"/>
<path d="M193.578 12.7771L182.31 24.0529L182.185 24.1726C181.677 24.7155 181.215 25.2993 180.803 25.918C179.249 28.2448 178.42 30.9808 178.422 33.7793C178.424 36.5777 179.257 39.3125 180.816 41.6368C179.932 42.9588 178.833 44.1231 177.564 45.0813L165.114 32.6313C164.001 31.5188 163.118 30.1979 162.515 28.744C161.913 27.2901 161.602 25.7317 161.602 24.1579C161.602 22.5841 161.913 21.0257 162.515 19.5718C163.118 18.1179 164.001 16.797 165.114 15.6846L168.041 12.7771L180.811 0L193.578 12.7771Z" fill="url(#paint1_linear_31_1832)"/>
<path d="M10.1846 48.6455C8.12751 48.6455 6.35358 48.3061 4.86283 47.6274C3.43414 46.9999 2.22658 45.9582 1.39636 44.637C0.582629 43.3236 0.127756 41.6921 0.0317365 39.7424C0.0122071 38.8441 0 37.8798 0 36.8496C0 35.8194 0.0122071 34.8357 0.0317365 33.8934C0.119619 31.986 0.580189 30.3651 1.41345 29.0306C2.24339 27.6959 3.4566 26.6427 4.89457 26.0084C6.38369 25.3298 8.14704 24.9903 10.1846 24.9903C11.5398 24.9779 12.8898 25.1605 14.193 25.5323C15.3525 25.8599 16.4433 26.3941 17.4129 27.1093C18.3079 27.7708 19.0436 28.624 19.5661 29.6067C20.0907 30.6279 20.366 31.759 20.3692 32.9071C20.3818 32.9971 20.3719 33.0888 20.3404 33.174C20.3089 33.2592 20.2567 33.3353 20.1886 33.3954C20.0511 33.5241 19.8692 33.595 19.6808 33.5931H15.2549C15.022 33.6081 14.7908 33.5445 14.5983 33.4124C14.4054 33.2297 14.2683 32.9961 14.2028 32.7387C13.8952 31.58 13.3972 30.7857 12.7088 30.3561C11.9369 29.9082 11.0546 29.6866 10.1626 29.7166C8.9567 29.7166 8.00382 30.0502 7.30401 30.7175C6.60421 31.3847 6.22095 32.4962 6.15422 34.052C6.08749 35.8422 6.08749 37.682 6.15422 39.5715C6.21932 41.129 6.60258 42.2406 7.30401 42.9062C8.00545 43.5718 8.95832 43.9062 10.1626 43.9095C11.0619 43.9371 11.9506 43.7094 12.7259 43.2528C13.4273 42.8134 13.9196 42.0249 14.2028 40.8873C14.2504 40.6269 14.3835 40.3898 14.5812 40.2136C14.7808 40.0833 15.0169 40.0199 15.2549 40.0329H19.6906C19.879 40.0311 20.0608 40.1019 20.1983 40.2307C20.2668 40.2905 20.3192 40.3665 20.3508 40.4518C20.3824 40.5371 20.392 40.6289 20.379 40.7189C20.376 41.8679 20.1008 42.9999 19.5758 44.0219C19.0534 45.0045 18.3177 45.8578 17.4227 46.5192C16.4531 47.2344 15.3623 47.7686 14.2028 48.0962C12.8968 48.4715 11.5434 48.6565 10.1846 48.6455Z" fill="white"/>
<path d="M31.5401 48.6454C29.7027 48.6454 28.1566 48.3499 26.9019 47.7592C25.7036 47.2214 24.6961 46.3339 24.0115 45.2131C23.3132 44.0067 22.9233 42.6466 22.8763 41.2534C22.8552 40.814 22.8446 40.3152 22.8446 39.757C22.8446 39.2004 22.8446 38.7122 22.8763 38.2923C22.9182 36.8863 23.3264 35.5156 24.0603 34.3156C24.7728 33.208 25.79 32.3298 26.9897 31.7866C28.2494 31.1926 29.7662 30.8963 31.5401 30.898C33.314 30.8996 34.8422 31.1958 36.1246 31.7866C37.3244 32.3298 38.3416 33.208 39.054 34.3156C39.787 35.516 40.195 36.8865 40.238 38.2923C40.26 38.7073 40.2698 39.1955 40.2698 39.757C40.2698 40.3185 40.2698 40.814 40.238 41.2534C40.1907 42.6462 39.8018 44.006 39.1053 45.2131C38.4191 46.3335 37.411 47.2208 36.2125 47.7592C34.9594 48.3499 33.4019 48.6454 31.5401 48.6454ZM31.5401 44.6369C32.5263 44.6369 33.244 44.3415 33.6932 43.7508C34.1424 43.16 34.3995 42.2723 34.4646 41.0875C34.4866 40.7604 34.4988 40.3209 34.4988 39.7741C34.4988 39.2272 34.4866 38.7976 34.4646 38.4607C34.3995 37.2987 34.1424 36.4167 33.6932 35.8145C33.244 35.2124 32.5263 34.9112 31.5401 34.9112C30.5978 34.9112 29.8915 35.2124 29.4211 35.8145C28.9508 36.4167 28.6937 37.2987 28.6497 38.4607C28.6278 38.7878 28.6156 39.2272 28.6156 39.7741C28.6156 40.3209 28.6278 40.7506 28.6497 41.0875C28.6937 42.2707 28.9508 43.1584 29.4211 43.7508C29.8915 44.3431 30.5978 44.6385 31.5401 44.6369Z" fill="white"/>
<path d="M49.9195 48.6455C48.9483 48.6599 47.9835 48.4866 47.078 48.1352C46.2476 47.8059 45.5048 47.2887 44.9078 46.6241C44.2808 45.9141 43.8057 45.0833 43.5114 44.1829C43.1652 43.1268 42.9768 42.0253 42.9524 40.9142C42.9304 40.4772 42.9207 40.0891 42.9207 39.7473C42.9207 39.4056 42.9207 39.015 42.9524 38.5829C42.982 37.5033 43.1704 36.434 43.5114 35.4094C43.8057 34.5121 44.2754 33.6823 44.8931 32.9682C45.4893 32.2954 46.2305 31.767 47.0609 31.4229C47.9675 31.0514 48.9399 30.8671 49.9195 30.881C50.889 30.8564 51.8524 31.0411 52.744 31.4229C53.4942 31.7576 54.1743 32.2314 54.7482 32.8193V25.7886C54.7433 25.6794 54.7613 25.5705 54.8009 25.4686C54.8406 25.3667 54.901 25.2741 54.9785 25.1969C55.0559 25.1197 55.1486 25.0596 55.2506 25.0203C55.3526 24.9809 55.4617 24.9632 55.5709 24.9684H59.5793C59.7933 24.9664 59.9994 25.0489 60.153 25.1979C60.2333 25.2734 60.2965 25.3652 60.3386 25.467C60.3807 25.5689 60.4007 25.6785 60.3971 25.7886V47.4737C60.3915 47.6894 60.3033 47.8948 60.1507 48.0475C59.998 48.2001 59.7926 48.2884 59.5768 48.294H55.854C55.7438 48.2985 55.6338 48.279 55.5318 48.2369C55.4298 48.1947 55.3382 48.1309 55.2633 48.0499C55.1131 47.8968 55.0297 47.6905 55.0314 47.4762V46.424C54.4719 47.0877 53.778 47.6252 52.9954 48.001C52.0339 48.4513 50.9809 48.6719 49.9195 48.6455ZM51.726 44.2514C52.3391 44.281 52.9452 44.1096 53.4519 43.7631C53.874 43.45 54.2031 43.0281 54.404 42.5425C54.6153 42.0197 54.7318 41.4634 54.7482 40.8996C54.7702 40.4602 54.7824 40.0452 54.7824 39.6497C54.7824 39.2542 54.7702 38.8514 54.7482 38.4291C54.7311 37.9015 54.6083 37.3826 54.3869 36.9034C54.1733 36.437 53.8355 36.0383 53.4104 35.7511C52.8909 35.4585 52.3041 35.3063 51.7079 35.3093C51.1116 35.3123 50.5264 35.4705 50.0098 35.7683C49.5806 36.0785 49.2595 36.5156 49.092 37.0181C48.8971 37.5796 48.7804 38.1654 48.7453 38.7587C48.6793 39.4358 48.6793 40.1176 48.7453 40.7946C48.7804 41.3888 48.8971 41.9753 49.092 42.5377C49.2595 43.0395 49.5806 43.4758 50.0098 43.7851C50.5163 44.1115 51.1119 44.2719 51.7138 44.244L51.726 44.2514Z" fill="white"/>
<path d="M72.1491 48.6453C69.5647 48.6453 67.506 47.9446 65.9729 46.5434C64.4399 45.1422 63.64 43.0615 63.5732 40.3013V39.1418C63.5937 37.5854 63.9943 36.0577 64.7401 34.6915C65.4266 33.4785 66.4558 32.4951 67.6988 31.8646C69.0724 31.1906 70.5876 30.8557 72.1174 30.8881C74.0427 30.8881 75.6359 31.2714 76.8972 32.0379C78.1303 32.7772 79.1186 33.8631 79.7387 35.1602C80.394 36.5689 80.7196 38.1084 80.6908 39.6617V40.4502C80.6957 40.5592 80.6778 40.6681 80.6383 40.7698C80.5988 40.8715 80.5385 40.9639 80.4614 41.0411C80.3842 41.1182 80.2918 41.1785 80.1901 41.218C80.0884 41.2575 79.9796 41.2754 79.8706 41.2705H69.3564V41.5C69.3701 42.0967 69.4874 42.6864 69.7031 43.2429C69.8863 43.7364 70.2043 44.1686 70.6209 44.4905C71.0544 44.8067 71.5811 44.969 72.1174 44.9517C72.4959 44.964 72.8722 44.8906 73.2184 44.737C73.4867 44.6139 73.7339 44.4491 73.9507 44.2487C74.1137 44.0993 74.2678 43.9404 74.4121 43.7728C74.5398 43.5946 74.7016 43.4436 74.8881 43.3284C75.0731 43.2645 75.2688 43.2371 75.4642 43.2478H79.5361C79.7357 43.2404 79.9302 43.3114 80.0781 43.4456C80.1491 43.5114 80.203 43.5938 80.2349 43.6853C80.2668 43.7768 80.2758 43.8746 80.2612 43.9704C80.1914 44.4595 79.9991 44.9231 79.7021 45.3179C79.2792 45.9161 78.7633 46.4428 78.1739 46.8779C77.4142 47.4399 76.5637 47.8676 75.6595 48.1425C74.5231 48.4933 73.3384 48.6631 72.1491 48.6453ZM69.3564 38.0335H74.9101V37.9676C74.9253 37.3341 74.8192 36.7035 74.5976 36.1099C74.4088 35.6232 74.0768 35.2052 73.6456 34.9112C73.1903 34.6192 72.658 34.4704 72.1174 34.484C71.5921 34.4713 71.0756 34.6204 70.638 34.9112C70.2111 35.2099 69.8803 35.6264 69.686 36.1099C69.4524 36.7007 69.3403 37.3325 69.3564 37.9676V38.0335Z" fill="white"/>
<path d="M84.6014 48.3159C84.4911 48.3205 84.3812 48.301 84.2792 48.2588C84.1772 48.2167 84.0855 48.1529 84.0106 48.0718C83.8612 47.9185 83.7786 47.7122 83.7812 47.4981V32.0625C83.7763 31.9535 83.7942 31.8447 83.8337 31.7429C83.8732 31.6412 83.9335 31.5489 84.0106 31.4718C84.0878 31.3946 84.1802 31.3344 84.2819 31.2949C84.3836 31.2554 84.4924 31.2375 84.6014 31.2423H88.1826C88.2916 31.2375 88.4005 31.2554 88.5022 31.2949C88.6039 31.3344 88.6963 31.3946 88.7734 31.4718C88.8506 31.5489 88.9108 31.6412 88.9503 31.7429C88.9898 31.8447 89.0077 31.9535 89.0029 32.0625V33.1806C89.5015 32.5386 90.1284 32.0073 90.8435 31.6207C91.6999 31.1533 92.6606 30.9098 93.6362 30.9127C96.1767 30.846 97.9181 31.7883 98.8603 33.7396C99.3879 32.884 100.13 32.1812 101.013 31.7012C101.955 31.1864 103.01 30.9154 104.083 30.9129C105.155 30.9103 106.212 31.1762 107.155 31.6866C108.103 32.2401 108.864 33.0638 109.34 34.0521C109.89 35.1148 110.165 36.4892 110.163 38.1752V47.5054C110.164 47.7193 110.082 47.9252 109.934 48.0791C109.858 48.1599 109.766 48.2236 109.664 48.2657C109.561 48.3079 109.451 48.3274 109.34 48.3232H105.53C105.417 48.3266 105.305 48.3067 105.2 48.2647C105.096 48.2227 105.001 48.1595 104.922 48.0791C104.844 48.0052 104.782 47.9162 104.74 47.8176C104.698 47.7189 104.677 47.6126 104.678 47.5054V38.4047C104.704 37.7802 104.593 37.1574 104.351 36.5811C104.168 36.1678 103.856 35.8251 103.462 35.6046C103.066 35.4014 102.625 35.2999 102.18 35.3092C101.774 35.3119 101.374 35.4132 101.016 35.6046C100.612 35.8224 100.289 36.1649 100.096 36.5811C99.8401 37.1538 99.7214 37.7782 99.7489 38.4047V47.5054C99.7515 47.7194 99.6689 47.9258 99.5195 48.0791C99.4445 48.16 99.3528 48.2237 99.2508 48.2659C99.1489 48.308 99.039 48.3276 98.9287 48.3232H95.1156C95.0053 48.3277 94.8954 48.3083 94.7933 48.2661C94.6913 48.2239 94.5997 48.1601 94.5248 48.0791C94.4483 48.0043 94.3873 47.9152 94.3454 47.8167C94.3035 47.7183 94.2815 47.6124 94.2807 47.5054V38.4047C94.3102 37.7765 94.1862 37.1506 93.9194 36.5811C93.7185 36.17 93.3976 35.8295 92.9991 35.6046C92.6233 35.4057 92.2036 35.3041 91.7785 35.3092C91.3609 35.3094 90.9497 35.4107 90.5799 35.6046C90.1769 35.8238 89.8545 36.1659 89.6595 36.5811C89.4069 37.1426 89.289 37.7554 89.3153 38.3705V47.5054C89.3098 47.7212 89.2216 47.9267 89.0689 48.0793C88.9163 48.232 88.7109 48.3201 88.4951 48.3257L84.6014 48.3159Z" fill="white"/>
<path d="M114.665 28.7668C114.555 28.772 114.446 28.7545 114.344 28.7151C114.242 28.6758 114.15 28.6155 114.072 28.5383C113.995 28.4611 113.934 28.3687 113.895 28.2668C113.855 28.1649 113.837 28.0559 113.842 27.9466V24.983C113.841 24.7685 113.923 24.5621 114.071 24.4069C114.147 24.3264 114.239 24.263 114.342 24.2209C114.444 24.1788 114.554 24.159 114.665 24.1628H118.607C118.823 24.1684 119.029 24.2569 119.182 24.41C119.334 24.5632 119.422 24.7692 119.427 24.9854V27.9418C119.432 28.052 119.412 28.1619 119.37 28.2639C119.328 28.366 119.264 28.4576 119.183 28.5325C119.03 28.6815 118.823 28.764 118.609 28.762L114.665 28.7668ZM114.696 48.3158C114.586 48.3202 114.476 48.3006 114.374 48.2585C114.272 48.2164 114.181 48.1527 114.105 48.0717C113.956 47.9184 113.873 47.7121 113.876 47.498V32.0624C113.871 31.9534 113.889 31.8446 113.929 31.7429C113.968 31.6412 114.028 31.5488 114.105 31.4717C114.183 31.3945 114.275 31.3343 114.377 31.2948C114.478 31.2553 114.587 31.2374 114.696 31.2422H118.573C118.682 31.237 118.791 31.2546 118.893 31.294C118.995 31.3333 119.088 31.3935 119.165 31.4707C119.243 31.5479 119.303 31.6404 119.343 31.7423C119.382 31.8442 119.4 31.9532 119.396 32.0624V47.5053C119.397 47.7192 119.315 47.9251 119.166 48.079C119.09 48.1599 118.998 48.2235 118.896 48.2657C118.794 48.3078 118.683 48.3274 118.573 48.3231L114.696 48.3158Z" fill="white"/>
<path d="M124.093 48.3158C123.982 48.3202 123.872 48.3006 123.77 48.2585C123.668 48.2163 123.577 48.1526 123.502 48.0717C123.352 47.9184 123.27 47.7121 123.272 47.498V32.0624C123.267 31.9534 123.285 31.8445 123.325 31.7428C123.364 31.6411 123.425 31.5488 123.502 31.4717C123.579 31.3945 123.671 31.3343 123.773 31.2948C123.875 31.2553 123.984 31.2373 124.093 31.2422H127.871C128.096 31.2354 128.315 31.3179 128.479 31.4717C128.56 31.5472 128.623 31.6388 128.665 31.7407C128.707 31.8425 128.727 31.9522 128.723 32.0624V33.3123C129.324 32.5907 130.073 32.0077 130.92 31.6035C131.936 31.1229 133.049 30.8863 134.172 30.9126C135.351 30.8898 136.515 31.185 137.541 31.767C138.534 32.3585 139.333 33.2262 139.841 34.2644C140.399 35.3613 140.678 36.7194 140.678 38.3387V47.5053C140.679 47.7191 140.597 47.9251 140.448 48.079C140.373 48.1598 140.281 48.2235 140.178 48.2656C140.076 48.3077 139.966 48.3273 139.855 48.3231H135.705C135.489 48.3181 135.283 48.2302 135.13 48.0775C134.977 47.9248 134.888 47.7191 134.883 47.5029V38.5339C134.883 37.5037 134.638 36.7096 134.15 36.1514C133.662 35.5932 132.93 35.314 131.953 35.314C131.556 35.2954 131.159 35.3603 130.789 35.5045C130.418 35.6487 130.082 35.8691 129.802 36.1514C129.265 36.7112 128.997 37.5054 128.997 38.5339V47.5029C128.991 47.7187 128.903 47.9241 128.75 48.0767C128.598 48.2293 128.392 48.3175 128.177 48.3231L124.093 48.3158Z" fill="white"/>
<path d="M152.972 48.3159C151.728 48.3469 150.492 48.1183 149.341 47.6446C148.35 47.2185 147.525 46.4794 146.993 45.5403C146.446 44.5882 146.172 43.3562 146.17 41.8443V35.5363H143.61C143.385 35.5431 143.166 35.4607 143.002 35.3069C142.921 35.2317 142.857 35.14 142.815 35.0381C142.773 34.9362 142.754 34.8263 142.758 34.7161V32.0625C142.754 31.9523 142.773 31.8425 142.815 31.7406C142.857 31.6386 142.921 31.547 143.002 31.4718C143.166 31.318 143.385 31.2355 143.61 31.2423H146.17V25.8205C146.167 25.7103 146.187 25.6006 146.229 25.4988C146.271 25.3969 146.334 25.3051 146.414 25.2296C146.569 25.0805 146.776 24.998 146.991 25.0002H150.801C150.91 24.9958 151.019 25.014 151.121 25.0534C151.222 25.0929 151.315 25.1528 151.392 25.2296C151.471 25.3061 151.533 25.3981 151.575 25.4997C151.617 25.6013 151.638 25.7105 151.636 25.8205V31.2423H155.742C155.967 31.2355 156.186 31.318 156.35 31.4718C156.43 31.5473 156.494 31.639 156.536 31.7408C156.578 31.8427 156.598 31.9524 156.594 32.0625V34.7259C156.598 34.8361 156.578 34.9456 156.536 35.0475C156.494 35.1494 156.43 35.2412 156.35 35.3167C156.186 35.4704 155.967 35.5529 155.742 35.5461H151.626V41.4049C151.594 42.0246 151.743 42.6402 152.054 43.1772C152.337 43.6166 152.82 43.8363 153.499 43.8363H156.028C156.137 43.8319 156.246 43.85 156.347 43.8896C156.449 43.9292 156.541 43.9895 156.619 44.0665C156.696 44.1436 156.756 44.2358 156.796 44.3373C156.836 44.4389 156.855 44.5475 156.851 44.6566V47.5152C156.852 47.7295 156.769 47.9358 156.619 48.0889C156.544 48.1698 156.452 48.2335 156.35 48.2757C156.248 48.3178 156.138 48.3374 156.028 48.333L152.972 48.3159Z" fill="white"/>
<defs>
<linearGradient id="paint0_linear_31_1832" x1="187.006" y1="30.3536" x2="170.074" y2="13.4191" gradientUnits="userSpaceOnUse">
<stop stop-color="#DCE1D9"/>
<stop offset="1" stop-color="#555555"/>
</linearGradient>
<linearGradient id="paint1_linear_31_1832" x1="185.615" y1="28.9622" x2="199.71" y2="43.0551" gradientUnits="userSpaceOnUse">
<stop stop-color="#E2F4D3"/>
<stop offset="1" stop-color="#555555"/>
</linearGradient>
</defs>
</svg>
