<svg width="80" height="80" viewBox="0 0 80 80" fill="none" xmlns="http://www.w3.org/2000/svg">
<rect width="80" height="80" rx="8" fill="#EDF7E5"/>
<path d="M30.5 32C30.7761 32 31 31.7761 31 31.5C31 31.2239 30.7761 31 30.5 31C30.2239 31 30 31.2239 30 31.5C30 31.7761 30.2239 32 30.5 32Z" fill="#325B0F"/>
<path d="M28.5 32C28.7761 32 29 31.7761 29 31.5C29 31.2239 28.7761 31 28.5 31C28.2239 31 28 31.2239 28 31.5C28 31.7761 28.2239 32 28.5 32Z" fill="#325B0F"/>
<path d="M26.5 32C26.7761 32 27 31.7761 27 31.5C27 31.2239 26.7761 31 26.5 31C26.2239 31 26 31.2239 26 31.5C26 31.7761 26.2239 32 26.5 32Z" fill="#325B0F"/>
<path d="M53.5 34H24.5C24.224 34 24 33.776 24 33.5C24 33.224 24.224 33 24.5 33H53.5C53.776 33 54 33.224 54 33.5C54 33.776 53.776 34 53.5 34Z" fill="#325B0F"/>
<path d="M52.5 29H25.5C24.673 29 24 29.673 24 30.5V53.5C24 54.327 24.673 55 25.5 55H52.5C53.327 55 54 54.327 54 53.5V30.5C54 29.673 53.327 29 52.5 29ZM53 53.5C53 53.775 52.775 54 52.5 54H25.5C25.225 54 25 53.775 25 53.5V30.5C25 30.225 25.225 30 25.5 30H52.5C52.775 30 53 30.225 53 30.5V53.5Z" fill="#325B0F"/>
<path d="M47.5 48H50.5C50.776 48 51 47.776 51 47.5C51 47.224 50.776 47 50.5 47H47.5C47.224 47 47 47.224 47 47.5C47 47.776 47.224 48 47.5 48Z" fill="#325B0F"/>
<path d="M40.5 50H43.5C43.776 50 44 49.776 44 49.5C44 49.224 43.776 49 43.5 49H40.5C40.224 49 40 49.224 40 49.5C40 49.776 40.224 50 40.5 50Z" fill="#325B0F"/>
<path d="M40.5 52H45.5C45.776 52 46 51.776 46 51.5C46 51.224 45.776 51 45.5 51H40.5C40.224 51 40 51.224 40 51.5C40 51.776 40.224 52 40.5 52Z" fill="#325B0F"/>
<path d="M47.5 52H48.5C48.776 52 49 51.776 49 51.5C49 51.224 48.776 51 48.5 51H47.5C47.224 51 47 51.224 47 51.5C47 51.776 47.224 52 47.5 52Z" fill="#325B0F"/>
<path d="M40.5 48H45.5C45.776 48 46 47.776 46 47.5C46 47.224 45.776 47 45.5 47H40.5C40.224 47 40 47.224 40 47.5C40 47.776 40.224 48 40.5 48Z" fill="#325B0F"/>
<path d="M45.5 50H50.5C50.776 50 51 49.776 51 49.5C51 49.224 50.776 49 50.5 49H45.5C45.224 49 45 49.224 45 49.5C45 49.776 45.224 50 45.5 50Z" fill="#325B0F"/>
<path d="M37.5 50H34.5C34.224 50 34 49.776 34 49.5C34 49.224 34.224 49 34.5 49H37.5C37.776 49 38 49.224 38 49.5C38 49.776 37.776 50 37.5 50Z" fill="#325B0F"/>
<path d="M35.5 52H32.5C32.224 52 32 51.776 32 51.5C32 51.224 32.224 51 32.5 51H35.5C35.776 51 36 51.224 36 51.5C36 51.776 35.776 52 35.5 52Z" fill="#325B0F"/>
<path d="M30.5 52H27.5C27.224 52 27 51.776 27 51.5C27 51.224 27.224 51 27.5 51H30.5C30.776 51 31 51.224 31 51.5C31 51.776 30.776 52 30.5 52Z" fill="#325B0F"/>
<path d="M38.5 44H28.5C28.224 44 28 43.776 28 43.5C28 43.224 28.224 43 28.5 43H38.5C38.776 43 39 43.224 39 43.5C39 43.776 38.776 44 38.5 44Z" fill="#325B0F"/>
<path d="M37.5 48H27.5C27.224 48 27 47.776 27 47.5C27 47.224 27.224 47 27.5 47H37.5C37.776 47 38 47.224 38 47.5C38 47.776 37.776 48 37.5 48Z" fill="#325B0F"/>
<path d="M32.5 50H27.5C27.224 50 27 49.776 27 49.5C27 49.224 27.224 49 27.5 49H32.5C32.776 49 33 49.224 33 49.5C33 49.776 32.776 50 32.5 50Z" fill="#325B0F"/>
<path d="M50.5 44H27.5C27.224 44 27 43.776 27 43.5V36.5C27 36.224 27.224 36 27.5 36H50.5C50.776 36 51 36.224 51 36.5V43.5C51 43.776 50.776 44 50.5 44ZM28 43H50V37H28V43Z" fill="#325B0F"/>
</svg>
