<svg width="80" height="80" viewBox="0 0 80 80" fill="none" xmlns="http://www.w3.org/2000/svg">
<rect width="80" height="80" fill="#EDF7E5"/>
<rect width="80" height="80" rx="8" fill="#EDF7E5"/>
<g clip-path="url(#clip0_28_1647)">
<path d="M52.3333 56H25.6667C24.196 56 23 54.804 23 53.3334V33.3334C23 31.8627 24.196 30.6667 25.6667 30.6667H39C39.368 30.6667 39.6667 30.9654 39.6667 31.3334C39.6667 31.7014 39.368 32 39 32H25.6667C24.9313 32 24.3333 32.598 24.3333 33.3334V53.3334C24.3333 54.0687 24.9313 54.6667 25.6667 54.6667H52.3333C53.0687 54.6667 53.6667 54.0687 53.6667 53.3334V33.3334C53.6667 32.598 53.0687 32 52.3333 32C51.9653 32 51.6667 31.7014 51.6667 31.3334C51.6667 30.9654 51.9653 30.6667 52.3333 30.6667C53.804 30.6667 55 31.8627 55 33.3334V53.3334C55 54.804 53.804 56 52.3333 56Z" fill="#325B0F"/>
<path d="M52.3334 53.3334H29.6667V33.3334H36.3334C36.7014 33.3334 37.0001 33.632 37.0001 34C37.0001 34.368 36.7014 34.6667 36.3334 34.6667H31.0001V52H51.0001V34.6667H49.6667C49.2987 34.6667 49.0001 34.368 49.0001 34C49.0001 33.632 49.2987 33.3334 49.6667 33.3334H52.3334V53.3334Z" fill="#325B0F"/>
<path d="M28.3333 52H23V34.6667H28.3333V52ZM24.3333 50.6667H27V36H24.3333V50.6667Z" fill="#325B0F"/>
<path d="M34.6267 42.3734L36.386 36.842L48.3807 24.848C49.388 23.84 51.1447 23.84 52.152 24.848C53.192 25.888 53.192 27.5794 52.152 28.6187L40.158 40.6134L34.6267 42.3734ZM37.5587 37.5554L36.6787 40.3207L39.444 39.4407L51.2094 27.6767C51.7294 27.1567 51.7294 26.3114 51.2094 25.7914C50.7054 25.2874 49.8274 25.2874 49.3234 25.7914L37.5587 37.5554Z" fill="#325B0F"/>
<path d="M27.6667 40.0001H23.6667V41.3334H27.6667V40.0001Z" fill="#325B0F"/>
<path d="M27.6667 45.3334H23.6667V46.6667H27.6667V45.3334Z" fill="#325B0F"/>
<path d="M50.7374 29.7574C50.5668 29.7574 50.3961 29.692 50.2661 29.562L47.4374 26.7334C47.1768 26.4727 47.1768 26.0514 47.4374 25.7907C47.6981 25.53 48.1194 25.53 48.3801 25.7907L51.2088 28.6194C51.4694 28.88 51.4694 29.3014 51.2088 29.562C51.0788 29.6927 50.9081 29.7574 50.7374 29.7574Z" fill="#325B0F"/>
<path d="M46.9667 33.5287C46.796 33.5287 46.6254 33.4633 46.4954 33.3333L43.6667 30.5047C43.406 30.244 43.406 29.8227 43.6667 29.562C43.9274 29.3013 44.3487 29.3013 44.6094 29.562L47.438 32.3907C47.6987 32.6513 47.6987 33.0727 47.438 33.3333C47.3074 33.4633 47.1374 33.5287 46.9667 33.5287Z" fill="#325B0F"/>
<path d="M39.8014 40.694C39.6307 40.694 39.4601 40.6287 39.3301 40.4987L36.5014 37.67C36.2407 37.4094 36.2407 36.988 36.5014 36.7274C36.7621 36.4667 37.1834 36.4667 37.4441 36.7274L40.2727 39.556C40.5334 39.8167 40.5334 40.238 40.2727 40.4987C40.1421 40.6287 39.9721 40.694 39.8014 40.694Z" fill="#325B0F"/>
<path d="M34.3333 43.3334C34.1627 43.3334 33.992 43.268 33.862 43.138C33.6013 42.8774 33.6013 42.456 33.862 42.1954L35.1813 40.876C35.442 40.6154 35.8633 40.6154 36.124 40.876C36.3847 41.1367 36.3847 41.558 36.124 41.8187L34.8047 43.138C34.6747 43.268 34.504 43.3334 34.3333 43.3334Z" fill="#325B0F"/>
</g>
<defs>
<clipPath id="clip0_28_1647">
<rect width="32" height="32" fill="white" transform="translate(23 24)"/>
</clipPath>
</defs>
</svg>
