<svg width="1440" height="827" viewBox="0 0 1440 827" fill="none" xmlns="http://www.w3.org/2000/svg">
<path d="M0.0926539 667.273C-1.48391 682.193 16.4559 713.269 100.455 718.152C189.136 723.307 200.894 739.347 212.095 754.627C214.156 757.438 216.199 760.224 218.698 762.912C234.779 780.206 260.319 797.499 350.184 783.766C440.048 770.033 528.02 765.455 595.182 798.008C648.912 824.05 700.923 827 720.046 827C739.17 827 791.181 824.05 844.91 798.008C912.072 765.455 1000.04 770.033 1089.91 783.766C1179.77 797.499 1205.31 780.206 1221.39 762.912C1223.89 760.224 1225.94 757.438 1228 754.627C1239.2 739.347 1250.96 723.307 1339.64 718.152C1423.64 713.269 1441.48 682.208 1439.91 667.288V0H1438.75C1433.37 15.9134 1409.17 37.8917 1339.64 41.9336C1250.96 47.0887 1239.2 63.1284 1228 78.4083C1225.94 81.22 1223.89 84.006 1221.39 86.6937C1205.31 103.987 1179.77 121.281 1089.91 107.548C1000.04 93.8146 912.072 89.2369 844.91 121.79C791.181 147.832 739.17 150.782 720.046 150.782C700.923 150.782 648.912 147.832 595.182 121.79C528.02 89.2369 440.048 93.8146 350.184 107.548C260.319 121.281 234.779 103.987 218.698 86.6937C216.199 84.006 214.156 81.22 212.095 78.4083C200.894 63.1284 189.136 47.0887 100.455 41.9336C30.9243 37.8917 6.71976 15.9134 1.3386 0H0.185715L0.0926539 667.273Z" fill="#E1F2D5"/>
</svg>
